
<!-- Generated by Microsoft Visio 11.0, SVG Export, v1.0 format_level2_page_entry.svg Page-1 -->
<!DOCTYPE svg
  PUBLIC "-//W3C//DTD SVG 1.1//EN" "http://www.w3.org/Graphics/SVG/1.1/DTD/svg11.dtd">
<svg xmlns:ev="http://www.w3.org/2001/xml-events" xmlns:xlink="http://www.w3.org/1999/xlink" xmlns="http://www.w3.org/2000/svg" xmlns:v="http://schemas.microsoft.com/visio/2003/SVGExtensions/" width="587.22336" height="123.84768" viewBox="0 0 440.417 92.8854" xml:space="preserve" color-interpolation-filters="sRGB" class="st9" preserveAspectRatio="xMidYMid meet" zoomAndPan="magnify" version="1.1" contentScriptType="text/ecmascript" contentStyleType="text/css"><style type="text/css" xml:space="preserve">
	
		.st1 {fill:none;stroke:none;stroke-linecap:butt;stroke-width:0.75}
		.st2 {fill:#000000;font-family:'Lucida Sans Typewriter','Lucida Console','Courier New',Courier,monospace;font-size:0.666664em}
		.st3 {fill:#ffffff;stroke:#000000;stroke-linecap:butt;stroke-opacity:0.74;stroke-width:0.903543}
		.st4 {fill:#000000;font-family:Arial,Helvetica,sans-serif;font-size:0.666664em}
		.st5 {fill:#000000;font-family:Arial,Helvetica,sans-serif;font-size:0.499992em}
		.st6 {font-size:1em}
		.st7 {fill:#000000;font-family:Arial,Helvetica,sans-serif;font-size:0.375em}
		.st8 {stroke:#000000;stroke-linecap:round;stroke-linejoin:round;stroke-width:0.24}
		.st9 {fill:none;fill-rule:evenodd;font-size:12px;overflow:visible;stroke-linecap:square;stroke-miterlimit:3}
	
	</style><g><title>Page-1</title><g id="shape52_1" transform="translate(223.464,-78.729)"><title>text3928</title><desc>15</desc><rect x="0" y="82.5726" width="13.55" height="10.3129" class="st1"/><text x="1.95" y="90.13" class="st2">15</text></g><g id="shape53_4" transform="translate(236.964,-78.4587)"><title>text3932</title><desc>14</desc><rect x="0" y="82.5726" width="13.55" height="10.3129" class="st1"/><text x="1.95" y="90.13" class="st2">14</text></g><g id="shape55_7" transform="translate(264.014,-78.729)"><title>text3940</title><desc>12</desc><rect x="0" y="82.5726" width="13.55" height="10.3129" class="st1"/><text x="1.95" y="90.13" class="st2">12</text></g><g id="shape56_10" transform="translate(277.464,-78.729)"><title>text3944</title><desc>11</desc><rect x="0" y="82.5726" width="13.55" height="10.3129" class="st1"/><text x="1.95" y="90.13" class="st2">11</text></g><g id="shape57_13" transform="translate(290.964,-78.729)"><title>text3948</title><desc>10</desc><rect x="0" y="82.5726" width="13.55" height="10.3129" class="st1"/><text x="1.95" y="90.13" class="st2">10</text></g><g id="shape58_16" transform="translate(307.344,-78.729)"><title>text3952</title><desc>9</desc><rect x="0" y="82.5726" width="6.8" height="10.3129" class="st1"/><text x="0.99" y="90.13" class="st2">9</text></g><g id="shape59_19" transform="translate(319.114,-78.729)"><title>text3956</title><desc>8</desc><rect x="0" y="82.5726" width="6.8" height="10.3129" class="st1"/><text x="0.99" y="90.13" class="st2">8</text></g><g id="shape61_22" transform="translate(347.942,-78.729)"><title>text3964</title><desc>6</desc><rect x="0" y="82.5726" width="6.8" height="10.3129" class="st1"/><text x="0.99" y="90.13" class="st2">6</text></g><g id="shape62_25" transform="translate(361.692,-78.729)"><title>text3968</title><desc>5</desc><rect x="0" y="82.5726" width="6.8" height="10.3129" class="st1"/><text x="0.99" y="90.13" class="st2">5</text></g><g id="shape63_28" transform="translate(375.276,-78.729)"><title>text3972</title><desc>4</desc><rect x="0" y="82.5726" width="6.8" height="10.3129" class="st1"/><text x="0.99" y="90.13" class="st2">4</text></g><g id="shape64_31" transform="translate(388.762,-78.729)"><title>text3976</title><desc>3</desc><rect x="0" y="82.5726" width="6.8" height="10.3129" class="st1"/><text x="0.99" y="90.13" class="st2">3</text></g><g id="shape65_34" transform="translate(402.434,-78.729)"><title>text3980</title><desc>2</desc><rect x="0" y="82.5726" width="6.8" height="10.3129" class="st1"/><text x="0.99" y="90.13" class="st2">2</text></g><g id="shape66_37" transform="translate(415.813,-78.729)"><title>text3984</title><desc>1</desc><rect x="0" y="82.5726" width="6.8" height="10.3129" class="st1"/><text x="0.99" y="90.13" class="st2">1</text></g><g id="shape67_40" transform="translate(429.344,-78.729)"><title>text3988</title><desc>0</desc><rect x="0" y="82.5726" width="6.8" height="10.3129" class="st1"/><text x="0.99" y="90.13" class="st2">0</text></g><g id="shape69_43" transform="translate(48.0136,-57.1867)"><title>rect2906</title><rect x="0" y="72.5845" width="364.432" height="20.3009" class="st3"/></g><g id="shape70_45" transform="translate(412.446,-57.1867)"><title>rect2979</title><rect x="0" y="72.5845" width="13.5339" height="20.3009" class="st3"/></g><g id="shape71_47" transform="translate(425.98,-57.1867)"><title>rect2981</title><rect x="0" y="72.5845" width="13.5339" height="20.3009" class="st3"/></g><g id="shape72_49" transform="translate(18.7636,-59.5216)"><title>text4008</title><desc>Fault</desc><rect x="0" y="79.1349" width="22.5" height="13.7505" class="st1"/><text x="0" y="88.41" class="st4">Fault</text></g><g id="shape73_52" transform="translate(200.278,-62.0596)"><title>text4028</title><desc>Ignored</desc><rect x="0" y="81.4267" width="52.55" height="11.4587" class="st1"/><text x="0" y="89.56" class="st4">Ignored</text></g><g id="shape74_55" transform="translate(417.587,-61.0991)"><title>text4032</title><desc>0</desc><rect x="0" y="81.4267" width="7.55" height="11.4587" class="st1"/><text x="0" y="89.56" class="st4">0</text></g><g id="shape75_58" transform="translate(431.121,-61.0991)"><title>text4036</title><desc>0</desc><rect x="0" y="81.4267" width="7.55" height="11.4587" class="st1"/><text x="0" y="89.56" class="st4">0</text></g><g id="shape76_61" transform="translate(236.504,-30.1188)"><title>rect2859</title><rect x="0" y="72.5845" width="40.6018" height="20.3009" class="st3"/></g><g id="shape77_63" transform="translate(358.31,-30.1188)"><title>rect2861</title><rect x="0" y="72.5845" width="27.0679" height="20.3009" class="st3"/></g><g id="shape78_65" transform="translate(277.106,-30.1188)"><title>rect2869</title><rect x="0" y="72.5845" width="13.5339" height="20.3009" class="st3"/></g><g id="shape79_67" transform="translate(290.406,-30.1188)"><title>rect2871</title><rect x="0" y="72.5845" width="13.5339" height="20.3009" class="st3"/></g><g id="shape80_69" transform="translate(304.174,-30.1188)"><title>rect2873</title><rect x="0" y="72.5845" width="13.5339" height="20.3009" class="st3"/></g><g id="shape81_71" transform="translate(222.971,-30.1188)"><title>rect2877</title><rect x="0" y="72.5845" width="13.5339" height="20.3009" class="st3"/></g><g id="shape82_73" transform="translate(385.274,-30.1188)"><title>rect2879</title><rect x="0" y="72.5845" width="13.5339" height="20.3009" class="st3"/></g><g id="shape83_75" transform="translate(398.808,-30.1188)"><title>rect2881</title><rect x="0" y="72.5845" width="13.5339" height="20.3009" class="st3"/></g><g id="shape85_77" transform="translate(295.023,-34.0211)"><title>text4311</title><desc>S</desc><rect x="0" y="81.4267" width="7.55" height="11.4587" class="st1"/><text x="0" y="89.56" class="st4">S</text></g><g id="shape87_80" transform="translate(250.48,-34.0211)"><title>text4319</title><desc>TEX</desc><rect x="0" y="81.4267" width="22.55" height="11.4587" class="st1"/><text x="0" y="89.56" class="st4">TEX</text></g><g id="shape88_83" transform="translate(367.101,-34.0211)"><title>text4323</title><desc>AP</desc><rect x="0" y="81.4267" width="15.05" height="11.4587" class="st1"/><text x="0" y="89.56" class="st4">AP</text></g><g id="shape89_86" transform="translate(138.66,61.1104) rotate(-90)"><title>text4331</title><desc>XN</desc><rect x="0" y="88.9311" width="16.225" height="3.95437" class="st1"/><text x="12.29" y="88.93" writing-mode="tb-rl" class="st5">X<tspan dx="-1.2em" y="14.822em" class="st6">N</tspan></text></g><g id="shape90_90" transform="translate(389.544,-34.0211)"><title>text4335</title><desc>C</desc><rect x="0" y="81.4267" width="7.55" height="11.4587" class="st1"/><text x="0" y="89.56" class="st4">C</text></g><g id="shape91_93" transform="translate(403.295,-34.0211)"><title>text4339</title><desc>B</desc><rect x="0" y="81.4267" width="7.55" height="11.4587" class="st1"/><text x="0" y="89.56" class="st4">B</text></g><g id="shape92_96" transform="translate(48.0136,-30.1188)"><title>rect2904</title><rect x="0" y="72.5845" width="174.957" height="20.3009" class="st3"/></g><g id="shape93_98" transform="translate(317.708,-30.1188)"><title>rect2939</title><rect x="0" y="72.5845" width="40.6018" height="20.3009" class="st3"/></g><g id="shape94_100" transform="translate(412.446,-30.1188)"><title>rect2945</title><rect x="0" y="72.5845" width="13.5339" height="20.3009" class="st3"/></g><g id="shape95_102" transform="translate(425.98,-30.1188)"><title>rect2947</title><rect x="0" y="72.5845" width="13.5339" height="20.3009" class="st3"/></g><g id="shape96_104" transform="translate(0.763624,-32.5216)"><title>text4012</title><desc>Large page</desc><rect x="0" y="79.1349" width="40.5" height="13.7505" class="st1"/><text x="0" y="88.41" class="st4">Large page</text></g><g id="shape97_107" transform="translate(417.587,-34.0312)"><title>text4040</title><desc>0</desc><rect x="0" y="81.4267" width="7.55" height="11.4587" class="st1"/><text x="0" y="89.56" class="st4">0</text></g><g id="shape98_110" transform="translate(431.447,-33.9729)"><title>text4044</title><desc>1</desc><rect x="0" y="81.4267" width="7.55" height="11.4587" class="st1"/><text x="0" y="89.56" class="st4">1</text></g><g id="shape99_113" transform="translate(82.2883,-34.9218)"><title>text4181</title><desc>Large Page Base Address</desc><rect x="0" y="81.4267" width="172.55" height="11.4587" class="st1"/><text x="0" y="89.56" class="st4">Large Page Base Address</text></g><g id="shape100_116" transform="translate(330.907,-34.0211)"><title>text4355</title><desc>SBZ</desc><rect x="0" y="81.4267" width="22.55" height="11.4587" class="st1"/><text x="0" y="89.56" class="st4">SBZ</text></g><g id="shape102_119" transform="translate(358.31,-3.05091)"><title>rect3148</title><rect x="0" y="72.5845" width="27.0679" height="20.3009" class="st3"/></g><g id="shape103_121" transform="translate(277.106,-3.05091)"><title>rect3150</title><rect x="0" y="72.5845" width="13.5339" height="20.3009" class="st3"/></g><g id="shape104_123" transform="translate(290.406,-3.05091)"><title>rect3152</title><rect x="0" y="72.5845" width="13.5339" height="20.3009" class="st3"/></g><g id="shape105_125" transform="translate(304.174,-3.05091)"><title>rect3154</title><rect x="0" y="72.5845" width="13.5339" height="20.3009" class="st3"/></g><g id="shape106_127" transform="translate(425.98,-3.05094)"><title>rect3156</title><rect x="0" y="72.5845" width="13.5339" height="20.3009" class="st3"/></g><g id="shape107_129" transform="translate(385.274,-3.05091)"><title>rect3158</title><rect x="0" y="72.5845" width="13.5339" height="20.3009" class="st3"/></g><g id="shape108_131" transform="translate(398.808,-3.05091)"><title>rect3160</title><rect x="0" y="72.5845" width="13.5339" height="20.3009" class="st3"/></g><g id="shape110_133" transform="translate(295.023,-6.9532)"><title>text3166</title><desc>S</desc><rect x="0" y="81.4267" width="7.55" height="11.4587" class="st1"/><text x="0" y="89.56" class="st4">S</text></g><g id="shape111_136" transform="translate(222.183,64.045) rotate(-90)"><title>text3170</title><desc>APX</desc><rect x="0" y="88.3164" width="20.3191" height="4.56905" class="st1"/><text x="15.99" y="88.32" writing-mode="tb-rl" class="st7">A<tspan dx="-1.2em" y="19.626em" class="st6">P</tspan><tspan dx="-1.2em" y="19.626em" class="st6">X</tspan></text></g><g id="shape112_141" transform="translate(367.101,-6.9532)"><title>text3178</title><desc>AP</desc><rect x="0" y="81.4267" width="15.05" height="11.4587" class="st1"/><text x="0" y="89.56" class="st4">AP</text></g><g id="shape114_144" transform="translate(389.544,-6.9532)"><title>text3186</title><desc>C</desc><rect x="0" y="81.4267" width="7.55" height="11.4587" class="st1"/><text x="0" y="89.56" class="st4">C</text></g><g id="shape115_147" transform="translate(403.295,-6.9532)"><title>text3190</title><desc>B</desc><rect x="0" y="81.4267" width="7.55" height="11.4587" class="st1"/><text x="0" y="89.56" class="st4">B</text></g><g id="shape116_150" transform="translate(48.0136,-3.05091)"><title>rect3194</title><rect x="0" y="72.5845" width="229.093" height="20.3009" class="st3"/></g><g id="shape117_152" transform="translate(317.708,-3.05091)"><title>rect3196</title><rect x="0" y="72.5845" width="40.6018" height="20.3009" class="st3"/></g><g id="shape118_154" transform="translate(412.446,-3.05091)"><title>rect3198</title><rect x="0" y="72.5845" width="13.5339" height="20.3009" class="st3"/></g><g id="shape119_156" transform="translate(0.763624,-10.0216)"><title>text3202</title><desc>Small page</desc><rect x="0" y="79.1349" width="40.5" height="13.7505" class="st1"/><text x="0" y="88.41" class="st4">Small page</text></g><g id="shape120_159" transform="translate(417.587,-6.96332)"><title>text3206</title><desc>1</desc><rect x="0" y="81.4267" width="7.55" height="11.4587" class="st1"/><text x="0" y="89.56" class="st4">1</text></g><g id="shape121_162" transform="translate(82.2883,-7.85386)"><title>text3214</title><desc>Small Page Base Address</desc><rect x="0" y="81.4267" width="172.55" height="11.4587" class="st1"/><text x="0" y="89.56" class="st4">Small Page Base Address</text></g><g id="shape122_165" transform="translate(331.683,-6.91902)"><title>text3174</title><desc>TEX</desc><rect x="0" y="81.4267" width="22.55" height="11.4587" class="st1"/><text x="0" y="89.56" class="st4">TEX</text></g><g id="shape1_168" transform="translate(341.433,88.9979) rotate(-90)"><title>text4331.1</title><desc>XN</desc><rect x="0" y="88.9311" width="16.225" height="3.95437" class="st1"/><text x="12.29" y="88.93" writing-mode="tb-rl" class="st5">X<tspan dx="-1.2em" y="14.822em" class="st6">N</tspan></text></g><g id="shape36_172" transform="translate(222.183,92.1354) rotate(-90)"><title>text3170.36</title><desc>APX</desc><rect x="0" y="88.3164" width="20.3191" height="4.56905" class="st1"/><text x="15.99" y="88.32" writing-mode="tb-rl" class="st7">A<tspan dx="-1.2em" y="19.626em" class="st6">P</tspan><tspan dx="-1.2em" y="19.626em" class="st6">X</tspan></text></g><g id="shape84_177" transform="translate(192.933,88.1104) rotate(-90)"><title>text4331.84</title><desc>nG</desc><rect x="0" y="88.9311" width="16.225" height="3.95437" class="st1"/><text x="12.29" y="88.93" writing-mode="tb-rl" class="st5">n<tspan dx="-1.2em" y="14.822em" class="st6">G</tspan></text></g><g id="shape86_181" transform="translate(192.933,61.9979) rotate(-90)"><title>text4331.86</title><desc>nG</desc><rect x="0" y="88.9311" width="16.225" height="3.95437" class="st1"/><text x="12.29" y="88.93" writing-mode="tb-rl" class="st5">n<tspan dx="-1.2em" y="14.822em" class="st6">G</tspan></text></g><g id="shape38_185" transform="translate(111.486,-460.864)"><title>Dynamic connector</title><path d="M8.96 83.89 L9.04 83.89" class="st8"/></g><g id="shape2_188" transform="translate(45.7136,-80.7087)"><title>text3932.2</title><desc>31</desc><rect x="0" y="82.5726" width="13.55" height="10.3129" class="st1"/><text x="1.95" y="90.13" class="st2">31</text></g><g id="shape5_191" transform="translate(234.739,-68.9731)"><title>Dynamic connector.5</title><path d="M9 84.37 L9 83.4" class="st8"/></g></g></svg>
