<?xml version='1.0' encoding='UTF-8'?>
<!DOCTYPE svg PUBLIC "-//W3C//DTD SVG 1.1//EN" "http://www.w3.org/Graphics/SVG/1.1/DTD/svg11.dtd">
<svg xmlns="http://www.w3.org/2000/svg" version="1.1" width="968" height="140">
  <g>
    <line x1="100" y1="20" x2="100" y2="28" style="fill:rgb(211,211,211);stroke:black;stroke-width:1;fill-opacity:1;"/>
    <rect x="100" y="28" width="768" height="30" style="fill:rgb(211,211,211);stroke:black;stroke-width:1;fill-opacity:1;"/>
    <text x="484" y="47.5" style="fill:black;font-family:monospace;font-size:16;text-anchor:middle">RES0</text>
    <line x1="868" y1="20" x2="868" y2="28" style="fill:rgb(211,211,211);stroke:black;stroke-width:1;fill-opacity:1;"/>
    <text x="112" y="24" style="font-family: monospace;fill:black" font-size="11" text-anchor="middle">63</text>
    <text x="856" y="24" style="font-family: monospace;fill:black" font-size="11" text-anchor="middle">32</text>
  </g>
  <g/>
  <line x1="868" y1="0" x2="968" y2="0" style="stroke-opacity:0;stroke:black;stroke-width:1;"/>
  <line x1="873" y1="28" x2="873" y2="58" stroke-dasharray="3, 3" style="stroke:black;stroke-width:2"/>
  <line x1="95" y1="88" x2="95" y2="118" stroke-dasharray="3, 3" style="stroke:black;stroke-width:2"/>
  <g>
    <line x1="100" y1="80" x2="100" y2="88" style="fill:rgb(211,211,211);stroke:black;stroke-width:1;fill-opacity:1;"/>
    <rect x="100" y="88" width="672" height="30" style="fill:rgb(211,211,211);stroke:black;stroke-width:1;fill-opacity:1;"/>
    <text x="436" y="107.5" style="fill:black;font-family:monospace;font-size:16;text-anchor:middle">RES0</text>
    <line x1="772" y1="80" x2="772" y2="88" style="fill:rgb(211,211,211);stroke:black;stroke-width:1;fill-opacity:1;"/>
    <text x="112" y="84" style="font-family: monospace;fill:black" font-size="11" text-anchor="middle">31</text>
    <text x="760" y="84" style="font-family: monospace;fill:black" font-size="11" text-anchor="middle">4</text>
    <rect x="772" y="88" width="48" height="30" style="fill:white;stroke:black;stroke-width:1;fill-opacity:0;"/>
    <text x="796" y="107.5" style="fill:black;font-family:monospace;font-size:16;text-anchor:middle">EL</text>
    <line x1="820" y1="80" x2="820" y2="88" style="fill:white;stroke:black;stroke-width:1;fill-opacity:0;"/>
    <text x="784" y="84" style="font-family: monospace;fill:black" font-size="11" text-anchor="middle">3</text>
    <text x="808" y="84" style="font-family: monospace;fill:black" font-size="11" text-anchor="middle">2</text>
    <rect x="820" y="88" width="48" height="30" style="fill:rgb(211,211,211);stroke:black;stroke-width:1;fill-opacity:1;"/>
    <text x="844" y="107.5" style="fill:black;font-family:monospace;font-size:16;text-anchor:middle">RES0</text>
    <line x1="868" y1="80" x2="868" y2="88" style="fill:rgb(211,211,211);stroke:black;stroke-width:1;fill-opacity:1;"/>
    <text x="832" y="84" style="font-family: monospace;fill:black" font-size="11" text-anchor="middle">1</text>
    <text x="856" y="84" style="font-family: monospace;fill:black" font-size="11" text-anchor="middle">0</text>
  </g>
  <g/>
  <line x1="868" y1="0" x2="968" y2="0" style="stroke-opacity:0;stroke:black;stroke-width:1;"/>
</svg>
