
<!-- Generated by Microsoft Visio 11.0, SVG Export, v1.0 summary_generating_address_from_level2_page_table_entry.svg Page-1 -->
<!DOCTYPE svg
  PUBLIC "-//W3C//DTD SVG 1.1//EN" "http://www.w3.org/Graphics/SVG/1.1/DTD/svg11.dtd">
<svg xmlns:ev="http://www.w3.org/2001/xml-events" xmlns:xlink="http://www.w3.org/1999/xlink" xmlns="http://www.w3.org/2000/svg" xmlns:v="http://schemas.microsoft.com/visio/2003/SVGExtensions/" width="564.2736" height="587.73888" viewBox="0 0 423.205 440.804" xml:space="preserve" color-interpolation-filters="sRGB" class="st16" preserveAspectRatio="xMidYMid meet" zoomAndPan="magnify" version="1.1" contentScriptType="text/ecmascript" contentStyleType="text/css"><style type="text/css" xml:space="preserve">
	
		.st1 {fill:none;stroke:none;stroke-linecap:butt;stroke-width:0.75}
		.st2 {fill:#000000;font-family:Arial,Helvetica,sans-serif;font-size:0.666664em;font-weight:bold}
		.st3 {fill:#ffffff;stroke:#000000;stroke-linecap:butt;stroke-opacity:0.74;stroke-width:0.903543}
		.st4 {fill:#000000;font-family:'Lucida Sans Typewriter','Lucida Console','Courier New',Courier,monospace;font-size:0.666664em}
		.st5 {fill:none}
		.st6 {stroke:#000000;stroke-linecap:butt;stroke-width:0.75}
		.st7 {fill:#000000;stroke:#000000;stroke-linecap:butt;stroke-width:0.4}
		.st8 {fill:#000000;font-family:Arial,Helvetica,sans-serif;font-size:0.666664em}
		.st9 {fill:none;stroke:#000000;stroke-linecap:butt;stroke-opacity:0.74;stroke-width:0.903543}
		.st10 {stroke:#000000;stroke-dasharray:1.48819,0.744094;stroke-linecap:butt;stroke-width:0.744094}
		.st11 {font-size:1em}
		.st12 {stroke:#000000;stroke-linecap:butt;stroke-width:0.72}
		.st13 {fill:#000000;stroke:#000000;stroke-linecap:butt;stroke-width:0.72}
		.st14 {marker-end:url(#mrkr5-301);stroke:#000000;stroke-linecap:round;stroke-linejoin:round;stroke-width:0.72}
		.st15 {fill:#000000;fill-opacity:1;stroke:#000000;stroke-opacity:1;stroke-width:0.28571428571429}
		.st16 {fill:none;fill-rule:evenodd;font-size:12px;overflow:visible;stroke-linecap:square;stroke-miterlimit:3}
	
	</style><defs id="Markers"><g id="lend5"><path d="M 2 1 L -0 0 L 1.98117 -0.993387 C 1.67173 -0.364515 1.67301 0.372641 1.98465 1.00043 " style="stroke:none"/></g><marker overflow="visible" id="mrkr5_301" class="st15" refX="-6.125" orient="auto" markerUnits="strokeWidth" preserveAspectRatio="xMidYMid meet"><use xlink:href="#lend5" transform="scale(-3.5,-3.5) " xlink:type="simple" xlink:show="embed" xlink:actuate="onLoad"/></marker></defs><g><title>Page-1</title><g id="shape5_1" transform="translate(111.941,-429.254)"><title>text5645</title><desc>Translation Table Base Address</desc><rect x="0" y="430.004" width="270.05" height="10.8" class="st1"/><text x="0" y="437.8" class="st2">Translation Table Base Address</text></g><g id="shape6_4" transform="translate(96.0209,-400.064)"><title>rect2892</title><rect x="0" y="425.621" width="106.299" height="15.1825" class="st3"/></g><g id="shape7_6" transform="translate(90.6779,-389.197)"><title>text4023</title><desc>31</desc><rect x="0" y="430.904" width="16.55" height="9.9" class="st1"/><text x="3.45" y="438.25" class="st4">31</text></g><g id="shape8_9" transform="translate(188.362,-389.617)"><title>text4027</title><desc>14</desc><rect x="0" y="430.904" width="16.55" height="9.9" class="st1"/><text x="3.45" y="438.25" class="st4">14</text></g><g id="shape9_12" transform="translate(96.0209,-421.324)"><title>path149</title><path d="M0 440.8 C0 440.8 0.86 437.43 2.55 436.55 C4.24 435.67 7.65 435.49 7.65 435.49 C7.65 435.49 183.69 435.49 183.69        435.49 C183.69 435.49 186.24 435.49 188.79 436.55 C191.34 437.62 191.34 440.8 191.34 440.8 L0 440.8 Z" class="st5"/><path d="M0 440.8 C0 440.8 0.86 437.43 2.55 436.55 C4.24 435.67 7.65 435.49 7.65 435.49 C7.65 435.49 183.69 435.49 183.69        435.49 C183.69 435.49 186.24 435.49 188.79 436.55 C191.34 437.62 191.34 440.8 191.34 440.8" class="st6"/></g><g id="shape10_15" transform="translate(207.635,-400.064)"><title>rect2896</title><rect x="0" y="425.621" width="79.7244" height="15.1825" class="st3"/></g><g id="shape11_17" transform="translate(204.307,-389.617)"><title>text4031</title><desc>13</desc><rect x="0" y="430.904" width="16.55" height="9.9" class="st1"/><text x="3.45" y="438.25" class="st4">13</text></g><g id="shape12_20" transform="translate(280.368,-389.617)"><title>text4035</title><desc>0</desc><rect x="0" y="430.904" width="8.3" height="9.9" class="st1"/><text x="1.74" y="438.25" class="st4">0</text></g><g id="group13_23" transform="translate(239.005,-307.052)"><title>Sheet.13</title><g id="shape14_24"><title>path4100</title><path d="M26.55 400.94 L26.57 420.88 L0 420.88 L0 440.8 L26.55 400.94 Z" class="st5"/><path d="M26.55 400.94 L26.57 420.88 L0 420.88 L0 440.8" class="st6"/></g><g id="group15_27" transform="translate(439.304,436.304) rotate(90)"><title>Arrow1Mend-1</title><g id="shape16_28" transform="translate(5.25,878.608) rotate(180)"><title>path3821-5</title><path d="M3.75 439.3 L5.25 437.8 L0 439.3 L5.25 440.8 L3.75 439.3 Z" class="st7"/></g></g></g><g id="shape17_30" transform="translate(152.405,-256.518)"><title>text3099</title><desc>Level 1 Descriptor Address</desc><rect x="0" y="430.004" width="270.05" height="10.8" class="st1"/><text x="0" y="437.8" class="st2">Level 1 Descriptor Address</text></g><g id="shape18_33" transform="translate(96.8831,-291.108)"><title>rect3103</title><rect x="0" y="425.621" width="105.437" height="15.1825" class="st3"/></g><g id="shape19_35" transform="translate(91.5401,-279.898)"><title>text3105</title><desc>31</desc><rect x="0" y="430.904" width="16.55" height="9.9" class="st1"/><text x="3.45" y="438.25" class="st4">31</text></g><g id="shape20_38" transform="translate(185.704,-279.898)"><title>text3109</title><desc>14</desc><rect x="0" y="430.904" width="16.55" height="9.9" class="st1"/><text x="3.45" y="438.25" class="st4">14</text></g><g id="shape21_41" transform="translate(96.0209,-269.505)"><title>path3113</title><path d="M0 435.49 C-0 435.49 0.86 438.86 2.55 439.74 C4.24 440.62 7.64 440.8 7.64 440.8 C7.64 440.8 183.36 440.8 183.36        440.8 C183.36 440.8 185.9 440.8 188.45 439.74 C191 438.68 191 435.49 191 435.49 L0 435.49 Z" class="st5"/><path d="M0 435.49 C-0 435.49 0.86 438.86 2.55 439.74 C4.24 440.62 7.64 440.8 7.64 440.8 C7.64 440.8 183.36 440.8 183.36        440.8 C183.36 440.8 185.9 440.8 188.45 439.74 C191 438.68 191 435.49 191 435.49" class="st6"/></g><g id="shape22_44" transform="translate(207.635,-291.108)"><title>rect3115</title><rect x="0" y="425.621" width="64.6417" height="15.1825" class="st3"/></g><g id="shape23_46" transform="translate(205.464,-279.898)"><title>text3117</title><desc>13</desc><rect x="0" y="430.904" width="16.55" height="9.9" class="st1"/><text x="3.45" y="438.25" class="st4">13</text></g><g id="shape24_49" transform="translate(265.285,-279.898)"><title>text3121</title><desc>2</desc><rect x="0" y="430.904" width="8.3" height="9.9" class="st1"/><text x="1.74" y="438.25" class="st4">2</text></g><g id="shape25_52" transform="translate(276.73,-291.108)"><title>rect3138</title><rect x="0" y="425.621" width="10.6299" height="15.1825" class="st3"/></g><g id="shape26_54" transform="translate(275.512,-279.898)"><title>text3140</title><desc>1</desc><rect x="0" y="430.904" width="8.3" height="9.9" class="st1"/><text x="1.74" y="438.25" class="st4">1</text></g><g id="shape27_57" transform="translate(281.176,-279.898)"><title>text3144</title><desc>0</desc><rect x="0" y="430.904" width="8.3" height="9.9" class="st1"/><text x="1.74" y="438.25" class="st4">0</text></g><g id="group28_60" transform="translate(149.856,-307.052)"><title>Sheet.28</title><g id="shape29_61"><title>path3186</title><path d="M0 347.79 L0 440.8 L0 347.79 Z" class="st5"/><path d="M0 347.79 L0 440.8" class="st6"/></g><g id="group30_64" transform="translate(439.304,436.304) rotate(90)"><title>Arrow1Mend-1</title><g id="shape31_65" transform="translate(5.25,878.608) rotate(180)"><title>path3821-5</title><path d="M3.75 439.3 L5.25 437.8 L0 439.3 L5.25 440.8 L3.75 439.3 Z" class="st7"/></g></g></g><g id="shape32_67" transform="translate(172.901,-73.1516)"><title>text3758</title><desc>Small Page Base Address</desc><rect x="0" y="430.004" width="207.05" height="10.8" class="st1"/><text x="0" y="437.8" class="st2">Small Page Base Address</text></g><g id="shape33_70" transform="translate(96.8831,-110.004)"><title>rect3762</title><rect x="0" y="425.621" width="116.067" height="15.1825" class="st3"/></g><g id="shape34_72" transform="translate(91.54,-99.9514)"><title>text3764</title><desc>31</desc><rect x="0" y="430.904" width="16.55" height="9.9" class="st1"/><text x="3.45" y="438.25" class="st4">31</text></g><g id="shape35_75" transform="translate(214.937,-99.9514)"><title>text3768</title><desc>11</desc><rect x="0" y="430.904" width="16.55" height="9.9" class="st1"/><text x="3.45" y="438.25" class="st4">11</text></g><g id="shape36_78" transform="translate(96.0209,-88.4014)"><title>path3772</title><path d="M0 435.49 C-0 435.49 0.86 438.86 2.55 439.74 C4.24 440.62 7.64 440.8 7.64 440.8 C7.64 440.8 183.36 440.8 183.36        440.8 C183.36 440.8 185.9 440.8 188.45 439.74 C191 438.68 191 435.49 191 435.49 L0 435.49 Z" class="st5"/><path d="M0 435.49 C-0 435.49 0.86 438.86 2.55 439.74 C4.24 440.62 7.64 440.8 7.64 440.8 C7.64 440.8 183.36 440.8 183.36        440.8 C183.36 440.8 185.9 440.8 188.45 439.74 C191 438.68 191 435.49 191 435.49" class="st6"/></g><g id="shape37_81" transform="translate(218.265,-110.004)"><title>rect3774</title><rect x="0" y="425.621" width="54.0118" height="15.1825" class="st3"/></g><g id="shape38_83" transform="translate(265.285,-99.9514)"><title>text3780</title><desc>2</desc><rect x="0" y="430.904" width="8.3" height="9.9" class="st1"/><text x="1.74" y="438.25" class="st4">2</text></g><g id="shape39_86" transform="translate(276.73,-110.004)"><title>rect3784</title><rect x="0" y="425.621" width="10.6299" height="15.1825" class="st3"/></g><g id="shape40_88" transform="translate(275.512,-99.9514)"><title>text3786</title><desc>1</desc><rect x="0" y="430.904" width="8.3" height="9.9" class="st1"/><text x="1.74" y="438.25" class="st4">1</text></g><g id="shape41_91" transform="translate(281.176,-99.9514)"><title>text3790</title><desc>0</desc><rect x="0" y="430.904" width="8.3" height="9.9" class="st1"/><text x="1.74" y="438.25" class="st4">0</text></g><g id="shape42_94" transform="translate(198.992,-99.9514)"><title>text3820</title><desc>12</desc><rect x="0" y="430.904" width="16.55" height="9.9" class="st1"/><text x="3.45" y="438.25" class="st4">12</text></g><g id="shape43_97" transform="translate(277.618,-112.695)"><title>text3828-7</title><desc>10</desc><rect x="0" y="431.804" width="15.05" height="9" class="st1"/><text x="0" y="438.7" class="st8">10</text></g><g id="group44_100" transform="translate(-1.59872E-014,-219.356)"><title>g2973</title><g id="shape45_101" transform="translate(32.2414,-21.2599)"><title>rect2936</title><rect x="0" y="387.654" width="42.5197" height="53.1496" class="st9"/></g><g id="shape46_103" transform="translate(53.5012,-74.4094)"><title>path2938</title><path d="M0 419.54 L0 437.77 L0 440.8 L0 419.54 Z" class="st5"/><path d="M0 419.54 L0 437.77 L0 440.8" class="st10"/></g><g id="shape47_106" transform="translate(53.5012,4.54747E-013)"><title>path2940</title><path d="M0 419.54 L0 440.8 L0 419.54 Z" class="st5"/><path d="M0 419.54 L0 440.8" class="st10"/></g><g id="shape48_109" transform="translate(37.5983,-33.057)"><title>text3883</title><desc>Level 1 Table</desc><rect x="0" y="411.268" width="30.2467" height="29.5355" class="st1"/><text x="2.23" y="423.64" class="st8">Level 1<tspan x="5.12" dy="9.5999616" class="st11">Table</tspan></text></g></g><g id="group53_113" transform="translate(74.7611,-275.163)"><title>Sheet.53</title><g id="shape54_114"><title>path3186-1</title><path d="M21.26 419.54 L0 440.8 L21.26 419.54 Z" class="st5"/><path d="M21.26 419.54 L0 440.8" class="st6"/></g><g id="group55_117" transform="translate(313.817,748.257) rotate(135)"><title>Arrow1Mend-1</title><g id="shape56_118" transform="translate(5.25,878.608) rotate(180)"><title>path3821-5</title><path d="M3.75 439.3 L5.25 437.8 L0 439.3 L5.25 440.8 L3.75 439.3 Z" class="st7"/></g></g></g><g id="group57_120" transform="translate(74.7611,-237.958)"><title>Sheet.57</title><g id="shape58_121"><title>path3186-1-1</title><path d="M0 424.86 L21.26 440.8 L0 424.86 Z" class="st5"/><path d="M0 424.86 L21.26 440.8" class="st6"/></g><g id="group59_124" transform="translate(281.242,86.6608) rotate(36.8699)"><title>Arrow1Mend-1</title><g id="shape60_125" transform="translate(5.25,878.608) rotate(180)"><title>path3821-5</title><path d="M3.75 439.3 L5.25 437.8 L0 439.3 L5.25 440.8 L3.75 439.3 Z" class="st7"/></g></g></g><g id="group61_127" transform="translate(255.47,-49.2769)"><title>Sheet.61</title><g id="shape62_128"><title>path4100-7</title><path d="M116.89 143.17 L116.93 419.24 L0 419.24 L0 440.8 L116.89 143.17 Z" class="st5"/><path d="M116.89 143.17 L116.93 419.24 L0 419.24 L0 440.8" class="st12"/></g><g id="group63_131" transform="translate(439.364,436.484) rotate(90)"><title>Arrow1Mend-1</title><g id="shape64_132" transform="translate(5.04,878.728) rotate(180)"><title>path3821-5</title><path d="M3.6 439.36 L5.04 437.92 L0 439.36 L5.04 440.8 L3.6 439.36 Z" class="st13"/></g></g></g><g id="shape65_134" transform="translate(96.8831,-33.3319)"><title>rect3889</title><rect x="0" y="425.621" width="116.067" height="15.1825" class="st3"/></g><g id="shape66_136" transform="translate(92.3974,-23.227)"><title>text3891</title><desc>31</desc><rect x="0" y="430.904" width="16.55" height="9.9" class="st1"/><text x="3.45" y="438.25" class="st4">31</text></g><g id="shape67_139" transform="translate(198.992,-23.227)"><title>text3895</title><desc>12</desc><rect x="0" y="430.904" width="16.55" height="9.9" class="st1"/><text x="3.45" y="438.25" class="st4">12</text></g><g id="shape68_142" transform="translate(218.265,-33.3319)"><title>rect3899</title><rect x="0" y="425.621" width="69.9567" height="15.1825" class="st3"/></g><g id="shape69_144" transform="translate(281.23,-23.227)"><title>text4035-0</title><desc>0</desc><rect x="0" y="430.904" width="8.3" height="9.9" class="st1"/><text x="1.74" y="438.25" class="st4">0</text></g><g id="shape70_147" transform="translate(217.594,-23.227)"><title>text3895-6</title><desc>11</desc><rect x="0" y="430.904" width="16.55" height="9.9" class="st1"/><text x="3.45" y="438.25" class="st4">11</text></g><g id="shape71_150" transform="translate(152.063,-0.75)"><title>text3758-4</title><desc>Physical Address</desc><rect x="0" y="430.004" width="144.05" height="10.8" class="st1"/><text x="0" y="437.8" class="st2">Physical Address</text></g><g id="shape72_153" transform="translate(97.4737,-14.4998)"><title>path3772-3</title><path d="M0 435.49 C-0 435.49 0.86 438.86 2.55 439.74 C4.24 440.62 7.64 440.8 7.64 440.8 C7.64 440.8 183.36 440.8 183.36        440.8 C183.36 440.8 185.9 440.8 188.45 439.74 C191 438.68 191 435.49 191 435.49 L0 435.49 Z" class="st5"/><path d="M0 435.49 C-0 435.49 0.86 438.86 2.55 439.74 C4.24 440.62 7.64 440.8 7.64 440.8 C7.64 440.8 183.36 440.8 183.36        440.8 C183.36 440.8 185.9 440.8 188.45 439.74 C191 438.68 191 435.49 191 435.49" class="st6"/></g><g id="shape74_156" transform="translate(287.334,-376.104)"><title>text3043</title><desc>Virtual Address</desc><rect x="0" y="430.004" width="135.05" height="10.8" class="st1"/><text x="0" y="437.8" class="st2">Virtual Address</text></g><g id="shape75_159" transform="translate(232.415,-346.915)"><title>rect3047</title><rect x="0" y="425.621" width="63.7795" height="15.1825" class="st3"/></g><g id="shape76_161" transform="translate(227.072,-336.047)"><title>text3049</title><desc>31</desc><rect x="0" y="430.904" width="16.55" height="9.9" class="st1"/><text x="3.45" y="438.25" class="st4">31</text></g><g id="shape77_164" transform="translate(282.236,-336.047)"><title>text3053</title><desc>20</desc><rect x="0" y="430.904" width="16.55" height="9.9" class="st1"/><text x="3.45" y="438.25" class="st4">20</text></g><g id="shape78_167" transform="translate(232.415,-368.174)"><title>path3057</title><path d="M0 440.8 C0 440.8 0.71 437.43 2.11 436.55 C3.52 435.67 6.34 435.49 6.34 435.49 C6.34 435.49 152.24 435.49 152.24        435.49 C152.24 435.49 154.36 435.49 156.47 436.55 C158.59 437.62 158.59 440.8 158.59 440.8 L0 440.8 Z" class="st5"/><path d="M0 440.8 C0 440.8 0.71 437.43 2.11 436.55 C3.52 435.67 6.34 435.49 6.34 435.49 C6.34 435.49 152.24 435.49 152.24        435.49 C152.24 435.49 154.36 435.49 156.47 436.55 C158.59 437.62 158.59 440.8 158.59 440.8" class="st6"/></g><g id="shape79_170" transform="translate(301.509,-346.915)"><title>rect3059</title><rect x="0" y="425.621" width="42.5197" height="15.1825" class="st3"/></g><g id="shape80_172" transform="translate(298.181,-336.047)"><title>text3061</title><desc>19</desc><rect x="0" y="430.904" width="16.55" height="9.9" class="st1"/><text x="3.45" y="438.25" class="st4">19</text></g><g id="shape81_175" transform="translate(384.317,-336.047)"><title>text3065</title><desc>0</desc><rect x="0" y="430.904" width="8.3" height="9.9" class="st1"/><text x="1.74" y="438.25" class="st4">0</text></g><g id="shape82_178" transform="translate(330.071,-336.047)"><title>text3061-1</title><desc>12</desc><rect x="0" y="430.904" width="16.55" height="9.9" class="st1"/><text x="3.45" y="438.25" class="st4">12</text></g><g id="shape83_181" transform="translate(349.344,-346.915)"><title>rect3019</title><rect x="0" y="425.621" width="42.5197" height="15.1825" class="st3"/></g><g id="shape84_183" transform="translate(346.016,-336.047)"><title>text3021</title><desc>11</desc><rect x="0" y="430.904" width="16.55" height="9.9" class="st1"/><text x="3.45" y="438.25" class="st4">11</text></g><g id="shape85_186" transform="translate(164.394,-195.396)"><title>text3051</title><desc>Level 2 Table Base Address</desc><rect x="0" y="430.004" width="234.05" height="10.8" class="st1"/><text x="0" y="437.8" class="st2">Level 2 Table Base Address</text></g><g id="shape86_189" transform="translate(96.8831,-230.748)"><title>rect3055</title><rect x="0" y="425.621" width="126.697" height="15.1825" class="st3"/></g><g id="shape87_191" transform="translate(91.5401,-219.538)"><title>text3057</title><desc>31</desc><rect x="0" y="430.904" width="16.55" height="9.9" class="st1"/><text x="3.45" y="438.25" class="st4">31</text></g><g id="shape88_194" transform="translate(209.622,-219.538)"><title>text3062</title><desc>10</desc><rect x="0" y="430.904" width="16.55" height="9.9" class="st1"/><text x="3.45" y="438.25" class="st4">10</text></g><g id="shape89_197" transform="translate(96.0209,-209.145)"><title>path3066</title><path d="M0 435.49 C-0 435.49 0.86 438.86 2.55 439.74 C4.24 440.62 7.64 440.8 7.64 440.8 C7.64 440.8 183.36 440.8 183.36        440.8 C183.36 440.8 185.9 440.8 188.45 439.74 C191 438.68 191 435.49 191 435.49 L0 435.49 Z" class="st5"/><path d="M0 435.49 C-0 435.49 0.86 438.86 2.55 439.74 C4.24 440.62 7.64 440.8 7.64 440.8 C7.64 440.8 183.36 440.8 183.36        440.8 C183.36 440.8 185.9 440.8 188.45 439.74 C191 438.68 191 435.49 191 435.49" class="st6"/></g><g id="shape90_200" transform="translate(228.895,-230.748)"><title>rect3068</title><rect x="0" y="425.621" width="43.3819" height="15.1825" class="st3"/></g><g id="shape91_202" transform="translate(229.692,-219.538)"><title>text3070</title><desc>9</desc><rect x="0" y="430.904" width="8.3" height="9.9" class="st1"/><text x="1.74" y="438.25" class="st4">9</text></g><g id="shape92_205" transform="translate(265.285,-219.538)"><title>text3074</title><desc>2</desc><rect x="0" y="430.904" width="8.3" height="9.9" class="st1"/><text x="1.74" y="438.25" class="st4">2</text></g><g id="shape93_208" transform="translate(276.73,-230.748)"><title>rect3078</title><rect x="0" y="425.621" width="10.6299" height="15.1825" class="st3"/></g><g id="shape94_210" transform="translate(275.512,-219.538)"><title>text3080</title><desc>1</desc><rect x="0" y="430.904" width="8.3" height="9.9" class="st1"/><text x="1.74" y="438.25" class="st4">1</text></g><g id="shape95_213" transform="translate(281.176,-219.538)"><title>text3084</title><desc>0</desc><rect x="0" y="430.904" width="8.3" height="9.9" class="st1"/><text x="1.74" y="438.25" class="st4">0</text></g><g id="shape96_216" transform="translate(278.379,-233.44)"><title>text3828-7-4</title><desc>01</desc><rect x="0" y="431.804" width="15.05" height="9" class="st1"/><text x="0" y="438.7" class="st8">01</text></g><g id="shape97_219" transform="translate(166.907,-131.616)"><title>text3255</title><desc>Level 2 Descriptor Address</desc><rect x="0" y="430.004" width="234.05" height="10.8" class="st1"/><text x="0" y="437.8" class="st2">Level 2 Descriptor Address</text></g><g id="shape98_222" transform="translate(96.8831,-166.968)"><title>rect3259</title><rect x="0" y="425.621" width="126.697" height="15.1825" class="st3"/></g><g id="shape99_224" transform="translate(91.5401,-155.758)"><title>text3261</title><desc>31</desc><rect x="0" y="430.904" width="16.55" height="9.9" class="st1"/><text x="3.45" y="438.25" class="st4">31</text></g><g id="shape100_227" transform="translate(209.622,-155.758)"><title>text3265</title><desc>10</desc><rect x="0" y="430.904" width="16.55" height="9.9" class="st1"/><text x="3.45" y="438.25" class="st4">10</text></g><g id="shape101_230" transform="translate(96.0209,-145.366)"><title>path3269</title><path d="M0 435.49 C-0 435.49 0.86 438.86 2.55 439.74 C4.24 440.62 7.64 440.8 7.64 440.8 C7.64 440.8 183.36 440.8 183.36        440.8 C183.36 440.8 185.9 440.8 188.45 439.74 C191 438.68 191 435.49 191 435.49 L0 435.49 Z" class="st5"/><path d="M0 435.49 C-0 435.49 0.86 438.86 2.55 439.74 C4.24 440.62 7.64 440.8 7.64 440.8 C7.64 440.8 183.36 440.8 183.36        440.8 C183.36 440.8 185.9 440.8 188.45 439.74 C191 438.68 191 435.49 191 435.49" class="st6"/></g><g id="shape102_233" transform="translate(228.895,-166.968)"><title>rect3271</title><rect x="0" y="425.621" width="43.3819" height="15.1825" class="st3"/></g><g id="shape103_235" transform="translate(229.692,-155.758)"><title>text3273</title><desc>9</desc><rect x="0" y="430.904" width="8.3" height="9.9" class="st1"/><text x="1.74" y="438.25" class="st4">9</text></g><g id="shape104_238" transform="translate(265.285,-155.758)"><title>text3277</title><desc>2</desc><rect x="0" y="430.904" width="8.3" height="9.9" class="st1"/><text x="1.74" y="438.25" class="st4">2</text></g><g id="shape105_241" transform="translate(276.73,-166.968)"><title>rect3281</title><rect x="0" y="425.621" width="10.6299" height="15.1825" class="st3"/></g><g id="shape106_243" transform="translate(275.512,-155.758)"><title>text3283</title><desc>1</desc><rect x="0" y="430.904" width="8.3" height="9.9" class="st1"/><text x="1.74" y="438.25" class="st4">1</text></g><g id="shape107_246" transform="translate(281.176,-155.758)"><title>text3287</title><desc>0</desc><rect x="0" y="430.904" width="8.3" height="9.9" class="st1"/><text x="1.74" y="438.25" class="st4">0</text></g><g id="group108_249" transform="translate(250.155,-182.151)"><title>Sheet.108</title><g id="shape109_250"><title>path3315</title><path d="M74.43 276.04 L74.46 428.86 L0 428.86 L0 440.8 L74.43 276.04 Z" class="st5"/><path d="M74.43 276.04 L74.46 428.86 L0 428.86 L0 440.8" class="st6"/></g><g id="group110_253" transform="translate(439.304,436.304) rotate(90)"><title>Arrow1Mend-1</title><g id="shape111_254" transform="translate(5.25,878.608) rotate(180)"><title>path3821-5</title><path d="M3.75 439.3 L5.25 437.8 L0 439.3 L5.25 440.8 L3.75 439.3 Z" class="st7"/></g></g></g><g id="group112_256" transform="translate(7.5E-007,-97.1114)"><title>g3368</title><g id="shape113_257" transform="translate(32.2414,-21.2599)"><title>rect3352</title><rect x="0" y="387.654" width="42.5197" height="53.1496" class="st9"/></g><g id="shape114_259" transform="translate(53.5012,-74.4094)"><title>path3354</title><path d="M0 419.54 L0 437.77 L0 440.8 L0 419.54 Z" class="st5"/><path d="M0 419.54 L0 437.77 L0 440.8" class="st10"/></g><g id="shape115_262" transform="translate(53.5012,4.54747E-013)"><title>path3356</title><path d="M0 419.54 L0 440.8 L0 419.54 Z" class="st5"/><path d="M0 419.54 L0 440.8" class="st10"/></g><g id="shape116_265" transform="translate(37.5983,-27.7953)"><title>text3358</title><desc>Level 2 Table</desc><rect x="0" y="407.513" width="30.2467" height="33.2914" class="st1"/><text x="2.23" y="421.76" class="st8">Level 2<tspan x="5.12" dy="9.5999616" class="st11">Table</tspan></text></g></g><g id="group117_269" transform="translate(74.7611,-152.919)"><title>Sheet.117</title><g id="shape118_270"><title>path3364</title><path d="M21.26 419.54 L0 440.8 L21.26 419.54 Z" class="st5"/><path d="M21.26 419.54 L0 440.8" class="st6"/></g><g id="group119_273" transform="translate(313.817,748.257) rotate(135)"><title>Arrow1Mend-1</title><g id="shape120_274" transform="translate(5.25,878.608) rotate(180)"><title>path3821-5</title><path d="M3.75 439.3 L5.25 437.8 L0 439.3 L5.25 440.8 L3.75 439.3 Z" class="st7"/></g></g></g><g id="group121_276" transform="translate(74.7611,-118.371)"><title>Sheet.121</title><g id="shape122_277"><title>path3366</title><path d="M0 424.86 L21.26 440.8 L0 424.86 Z" class="st5"/><path d="M0 424.86 L21.26 440.8" class="st6"/></g><g id="group123_280" transform="translate(281.242,86.6608) rotate(36.8699)"><title>Arrow1Mend-1</title><g id="shape124_281" transform="translate(5.25,878.608) rotate(180)"><title>path3821-5</title><path d="M3.75 439.3 L5.25 437.8 L0 439.3 L5.25 440.8 L3.75 439.3 Z" class="st7"/></g></g></g><g id="shape125_283" transform="translate(13.481,-239.64)"><title>text3414</title><desc>TTB</desc><rect x="0" y="431.804" width="22.55" height="9" class="st1"/><text x="0" y="438.7" class="st8">TTB</text></g><g id="shape126_286" transform="translate(9.71638,-116.121)"><title>text3418</title><desc>L2TB</desc><rect x="0" y="431.804" width="30.05" height="9" class="st1"/><text x="0" y="438.7" class="st8">L2TB</text></g><g id="group127_289" transform="translate(149.773,-182.151)"><title>Sheet.127</title><g id="shape128_290"><title>path3422</title><path d="M0 392.97 L0 440.8 L0 392.97 Z" class="st5"/><path d="M0 392.97 L0 440.8" class="st6"/></g><g id="group129_293" transform="translate(439.304,436.304) rotate(90)"><title>Arrow1Mend-1</title><g id="shape130_294" transform="translate(5.25,878.608) rotate(180)"><title>path3821-5</title><path d="M3.75 439.3 L5.25 437.8 L0 439.3 L5.25 440.8 L3.75 439.3 Z" class="st7"/></g></g></g><g id="shape49_296" transform="translate(583.526,330.8) rotate(90)"><title>Sheet.49</title><path d="M0 440.8 L57.08 440.8" class="st14"/></g></g></svg>
