<?xml version='1.0' encoding='UTF-8'?>
<!DOCTYPE svg PUBLIC "-//W3C//DTD SVG 1.1//EN" "http://www.w3.org/Graphics/SVG/1.1/DTD/svg11.dtd">
<svg xmlns="http://www.w3.org/2000/svg" version="1.1" width="968" height="170">
  <g>
    <line x1="100" y1="20" x2="100" y2="28" style="fill:rgb(211,211,211);stroke:black;stroke-width:1;fill-opacity:1;"/>
    <rect x="100" y="28" width="384" height="30" style="fill:rgb(211,211,211);stroke:black;stroke-width:1;fill-opacity:1;"/>
    <text x="292" y="47.5" style="fill:black;font-family:monospace;font-size:16;text-anchor:middle">RES0</text>
    <line x1="484" y1="20" x2="484" y2="28" style="fill:rgb(211,211,211);stroke:black;stroke-width:1;fill-opacity:1;"/>
    <text x="112" y="24" style="font-family: monospace;fill:black" font-size="11" text-anchor="middle">31</text>
    <text x="472" y="24" style="font-family: monospace;fill:black" font-size="11" text-anchor="middle">16</text>
    <rect x="484" y="28" width="24" height="30" style="fill:white;stroke:black;stroke-width:1;fill-opacity:0;"/>
    <line x1="508" y1="20" x2="508" y2="28" style="fill:white;stroke:black;stroke-width:1;fill-opacity:0;"/>
    <text x="496" y="24" style="font-family: monospace;fill:black" font-size="11" text-anchor="middle">15</text>
    <rect x="508" y="28" width="24" height="30" style="fill:rgb(211,211,211);stroke:black;stroke-width:1;fill-opacity:1;"/>
    <line x1="532" y1="20" x2="532" y2="28" style="fill:rgb(211,211,211);stroke:black;stroke-width:1;fill-opacity:1;"/>
    <text x="520" y="24" style="font-family: monospace;fill:black" font-size="11" text-anchor="middle">14</text>
    <rect x="532" y="28" width="24" height="30" style="fill:white;stroke:black;stroke-width:1;fill-opacity:0;"/>
    <line x1="556" y1="20" x2="556" y2="28" style="fill:white;stroke:black;stroke-width:1;fill-opacity:0;"/>
    <text x="544" y="24" style="font-family: monospace;fill:black" font-size="11" text-anchor="middle">13</text>
    <rect x="556" y="28" width="24" height="30" style="fill:white;stroke:black;stroke-width:1;fill-opacity:0;"/>
    <line x1="580" y1="20" x2="580" y2="28" style="fill:white;stroke:black;stroke-width:1;fill-opacity:0;"/>
    <text x="568" y="24" style="font-family: monospace;fill:black" font-size="11" text-anchor="middle">12</text>
    <rect x="580" y="28" width="48" height="30" style="fill:rgb(211,211,211);stroke:black;stroke-width:1;fill-opacity:1;"/>
    <text x="604" y="47.5" style="fill:black;font-family:monospace;font-size:16;text-anchor:middle">RES0</text>
    <line x1="628" y1="20" x2="628" y2="28" style="fill:rgb(211,211,211);stroke:black;stroke-width:1;fill-opacity:1;"/>
    <text x="592" y="24" style="font-family: monospace;fill:black" font-size="11" text-anchor="middle">11</text>
    <text x="616" y="24" style="font-family: monospace;fill:black" font-size="11" text-anchor="middle">10</text>
    <rect x="628" y="28" width="24" height="30" style="fill:white;stroke:black;stroke-width:1;fill-opacity:0;"/>
    <line x1="652" y1="20" x2="652" y2="28" style="fill:white;stroke:black;stroke-width:1;fill-opacity:0;"/>
    <text x="640" y="24" style="font-family: monospace;fill:black" font-size="11" text-anchor="middle">9</text>
    <rect x="652" y="28" width="24" height="30" style="fill:white;stroke:black;stroke-width:1;fill-opacity:0;"/>
    <line x1="676" y1="20" x2="676" y2="28" style="fill:white;stroke:black;stroke-width:1;fill-opacity:0;"/>
    <text x="664" y="24" style="font-family: monospace;fill:black" font-size="11" text-anchor="middle">8</text>
    <rect x="676" y="28" width="24" height="30" style="fill:white;stroke:black;stroke-width:1;fill-opacity:0;"/>
    <line x1="700" y1="20" x2="700" y2="28" style="fill:white;stroke:black;stroke-width:1;fill-opacity:0;"/>
    <text x="688" y="24" style="font-family: monospace;fill:black" font-size="11" text-anchor="middle">7</text>
    <rect x="700" y="28" width="24" height="30" style="fill:white;stroke:black;stroke-width:1;fill-opacity:0;"/>
    <line x1="724" y1="20" x2="724" y2="28" style="fill:white;stroke:black;stroke-width:1;fill-opacity:0;"/>
    <text x="712" y="24" style="font-family: monospace;fill:black" font-size="11" text-anchor="middle">6</text>
    <rect x="724" y="28" width="24" height="30" style="fill:white;stroke:black;stroke-width:1;fill-opacity:0;"/>
    <text x="736" y="47.5" style="fill:black;font-family:monospace;font-size:16;text-anchor:middle">AW</text>
    <line x1="748" y1="20" x2="748" y2="28" style="fill:white;stroke:black;stroke-width:1;fill-opacity:0;"/>
    <text x="736" y="24" style="font-family: monospace;fill:black" font-size="11" text-anchor="middle">5</text>
    <rect x="748" y="28" width="24" height="30" style="fill:white;stroke:black;stroke-width:1;fill-opacity:0;"/>
    <text x="760" y="47.5" style="fill:black;font-family:monospace;font-size:16;text-anchor:middle">FW</text>
    <line x1="772" y1="20" x2="772" y2="28" style="fill:white;stroke:black;stroke-width:1;fill-opacity:0;"/>
    <text x="760" y="24" style="font-family: monospace;fill:black" font-size="11" text-anchor="middle">4</text>
    <rect x="772" y="28" width="24" height="30" style="fill:white;stroke:black;stroke-width:1;fill-opacity:0;"/>
    <text x="784" y="47.5" style="fill:black;font-family:monospace;font-size:16;text-anchor:middle">EA</text>
    <line x1="796" y1="20" x2="796" y2="28" style="fill:white;stroke:black;stroke-width:1;fill-opacity:0;"/>
    <text x="784" y="24" style="font-family: monospace;fill:black" font-size="11" text-anchor="middle">3</text>
    <rect x="796" y="28" width="24" height="30" style="fill:white;stroke:black;stroke-width:1;fill-opacity:0;"/>
    <line x1="820" y1="20" x2="820" y2="28" style="fill:white;stroke:black;stroke-width:1;fill-opacity:0;"/>
    <text x="808" y="24" style="font-family: monospace;fill:black" font-size="11" text-anchor="middle">2</text>
    <rect x="820" y="28" width="24" height="30" style="fill:white;stroke:black;stroke-width:1;fill-opacity:0;"/>
    <line x1="844" y1="20" x2="844" y2="28" style="fill:white;stroke:black;stroke-width:1;fill-opacity:0;"/>
    <text x="832" y="24" style="font-family: monospace;fill:black" font-size="11" text-anchor="middle">1</text>
    <rect x="844" y="28" width="24" height="30" style="fill:white;stroke:black;stroke-width:1;fill-opacity:0;"/>
    <text x="856" y="47.5" style="fill:black;font-family:monospace;font-size:16;text-anchor:middle">NS</text>
    <line x1="868" y1="20" x2="868" y2="28" style="fill:white;stroke:black;stroke-width:1;fill-opacity:0;"/>
    <text x="856" y="24" style="font-family: monospace;fill:black" font-size="11" text-anchor="middle">0</text>
  </g>
  <g/>
  <line x1="868" y1="0" x2="968" y2="0" style="stroke-opacity:0;stroke:black;stroke-width:1;"/>
  <line x1="496" y1="60" x2="496" y2="78" style="fill:white;stroke:black;stroke-width:1;fill-opacity:0;"/>
  <line x1="496" y1="78" x2="486" y2="78" style="fill:white;stroke:black;stroke-width:1;fill-opacity:0;"/>
  <text x="484" y="80" style="fill:black;font-family:monospace;font-size:16;text-anchor:end">TERR</text>
  <line x1="520" y1="60" x2="520" y2="96" style="fill:rgb(211,211,211);stroke:black;stroke-width:1;fill-opacity:1;"/>
  <line x1="520" y1="96" x2="510" y2="96" style="fill:rgb(211,211,211);stroke:black;stroke-width:1;fill-opacity:1;"/>
  <text x="508" y="98" style="fill:black;font-family:monospace;font-size:16;text-anchor:end">RES0</text>
  <line x1="544" y1="60" x2="544" y2="114" style="fill:white;stroke:black;stroke-width:1;fill-opacity:0;"/>
  <line x1="544" y1="114" x2="534" y2="114" style="fill:white;stroke:black;stroke-width:1;fill-opacity:0;"/>
  <text x="532" y="116" style="fill:black;font-family:monospace;font-size:16;text-anchor:end">TWE</text>
  <line x1="568" y1="60" x2="568" y2="132" style="fill:white;stroke:black;stroke-width:1;fill-opacity:0;"/>
  <line x1="568" y1="132" x2="558" y2="132" style="fill:white;stroke:black;stroke-width:1;fill-opacity:0;"/>
  <text x="556" y="134" style="fill:black;font-family:monospace;font-size:16;text-anchor:end">TWI</text>
  <line x1="640" y1="60" x2="640" y2="150" style="fill:white;stroke:black;stroke-width:1;fill-opacity:0;"/>
  <line x1="640" y1="150" x2="630" y2="150" style="fill:white;stroke:black;stroke-width:1;fill-opacity:0;"/>
  <text x="628" y="152" style="fill:black;font-family:monospace;font-size:16;text-anchor:end">SIF</text>
  <line x1="832" y1="60" x2="832" y2="78" style="fill:white;stroke:black;stroke-width:1;fill-opacity:0;"/>
  <line x1="832" y1="78" x2="842" y2="78" style="fill:white;stroke:black;stroke-width:1;fill-opacity:0;"/>
  <text x="844" y="80" style="fill:black;font-family:monospace;font-size:16;text-anchor:start">IRQ</text>
  <line x1="808" y1="60" x2="808" y2="96" style="fill:white;stroke:black;stroke-width:1;fill-opacity:0;"/>
  <line x1="808" y1="96" x2="818" y2="96" style="fill:white;stroke:black;stroke-width:1;fill-opacity:0;"/>
  <text x="820" y="98" style="fill:black;font-family:monospace;font-size:16;text-anchor:start">FIQ</text>
  <line x1="712" y1="60" x2="712" y2="114" style="fill:white;stroke:black;stroke-width:1;fill-opacity:0;"/>
  <line x1="712" y1="114" x2="722" y2="114" style="fill:white;stroke:black;stroke-width:1;fill-opacity:0;"/>
  <text x="724" y="116" style="fill:black;font-family:monospace;font-size:16;text-anchor:start">nET</text>
  <line x1="688" y1="60" x2="688" y2="132" style="fill:white;stroke:black;stroke-width:1;fill-opacity:0;"/>
  <line x1="688" y1="132" x2="698" y2="132" style="fill:white;stroke:black;stroke-width:1;fill-opacity:0;"/>
  <text x="700" y="134" style="fill:black;font-family:monospace;font-size:16;text-anchor:start">SCD</text>
  <line x1="664" y1="60" x2="664" y2="150" style="fill:white;stroke:black;stroke-width:1;fill-opacity:0;"/>
  <line x1="664" y1="150" x2="674" y2="150" style="fill:white;stroke:black;stroke-width:1;fill-opacity:0;"/>
  <text x="676" y="152" style="fill:black;font-family:monospace;font-size:16;text-anchor:start">HCE</text>
</svg>
