
<!-- Generated by Microsoft Visio 11.0, SVG Export, v1.0 level1_page_table_entry_format_new.svg Page-1 -->
<!DOCTYPE svg
  PUBLIC "-//W3C//DTD SVG 1.1//EN" "http://www.w3.org/Graphics/SVG/1.1/DTD/svg11.dtd">
<svg xmlns:ev="http://www.w3.org/2001/xml-events" xmlns:xlink="http://www.w3.org/1999/xlink" xmlns="http://www.w3.org/2000/svg" xmlns:v="http://schemas.microsoft.com/visio/2003/SVGExtensions/" width="613.92" height="140.4384" viewBox="0 0 460.44 105.329" xml:space="preserve" color-interpolation-filters="sRGB" class="st13" preserveAspectRatio="xMidYMid meet" zoomAndPan="magnify" version="1.1" contentScriptType="text/ecmascript" contentStyleType="text/css"><style type="text/css" xml:space="preserve">
	
		.st1 {fill:none}
		.st2 {stroke:#cccccc;stroke-linecap:butt;stroke-width:0.72}
		.st3 {fill:none;stroke:#ffffff;stroke-linecap:butt;stroke-width:0.72}
		.st4 {fill:#000000;font-family:'Lucida Sans Typewriter','Lucida Console','Courier New',Courier,monospace;font-size:0.666664em}
		.st5 {fill:#ffffff;stroke:#000000;stroke-linecap:butt;stroke-opacity:0.74;stroke-width:0.72}
		.st6 {fill:none;stroke:none;stroke-linecap:butt;stroke-width:0.72}
		.st7 {fill:#000000;font-family:Arial,Helvetica,sans-serif;font-size:0.666664em}
		.st8 {fill:#000000;font-family:Arial,Helvetica,sans-serif;font-size:0.375em}
		.st9 {font-size:1em}
		.st10 {fill:#000000;font-family:Arial,Helvetica,sans-serif;font-size:0.625008em}
		.st11 {baseline-shift:32.4939%;font-size:0.649878em}
		.st12 {fill:#000000;font-family:Arial,Helvetica,sans-serif;font-size:0.499992em}
		.st13 {fill:none;fill-rule:evenodd;font-size:12px;overflow:visible;stroke-linecap:square;stroke-miterlimit:3}
	
	</style><g><title>Page-1</title><g id="shape2_1" transform="translate(447.524,-92.0194)"><title>path3845</title><path d="M0 92.74 L0 105.33 L0 92.74 Z" class="st1"/><path d="M0 92.74 L0 105.33" class="st2"/></g><g id="shape3_4" transform="translate(459.72,-92.0194)"><title>path3847</title><path d="M0 92.74 L0 105.33 L0 92.74 Z" class="st1"/><path d="M0 92.74 L0 105.33" class="st2"/></g><g id="shape4_7" transform="translate(81.6357,-92.0194)"><title>path2989</title><path d="M0 92.74 L0 105.33 L0 92.74 Z" class="st1"/><path d="M0 92.74 L0 105.33" class="st2"/></g><g id="shape5_10" transform="translate(69.4395,-92.0194)"><title>path3849</title><path d="M0 92.74 L0 105.33 L0 92.74 Z" class="st1"/><path d="M0 92.74 L0 105.33" class="st2"/></g><g id="shape6_13" transform="translate(93.832,-92.0194)"><title>path3787</title><path d="M0 92.74 L0 105.33 L0 92.74 Z" class="st1"/><path d="M0 92.74 L0 105.33" class="st2"/></g><g id="shape7_16" transform="translate(106.028,-92.0194)"><title>path3789</title><path d="M0 92.74 L0 105.33 L0 92.74 Z" class="st1"/><path d="M0 92.74 L0 105.33" class="st2"/></g><g id="shape8_19" transform="translate(118.225,-92.0194)"><title>path3791</title><path d="M0 92.74 L0 105.33 L0 92.74 Z" class="st1"/><path d="M0 92.74 L0 105.33" class="st2"/></g><g id="shape9_22" transform="translate(130.421,-92.0194)"><title>path3793</title><path d="M0 92.74 L0 105.33 L0 92.74 Z" class="st1"/><path d="M0 92.74 L0 105.33" class="st2"/></g><g id="shape10_25" transform="translate(142.617,-92.0194)"><title>path3795</title><path d="M0 92.74 L0 105.33 L0 92.74 Z" class="st1"/><path d="M0 92.74 L0 105.33" class="st2"/></g><g id="shape11_28" transform="translate(154.813,-92.0194)"><title>path3797</title><path d="M0 92.74 L0 105.33 L0 92.74 Z" class="st1"/><path d="M0 92.74 L0 105.33" class="st2"/></g><g id="shape12_31" transform="translate(167.01,-92.0194)"><title>path3799</title><path d="M0 92.74 L0 105.33 L0 92.74 Z" class="st1"/><path d="M0 92.74 L0 105.33" class="st2"/></g><g id="shape13_34" transform="translate(179.206,-92.0194)"><title>path3801</title><path d="M0 92.74 L0 105.33 L0 92.74 Z" class="st1"/><path d="M0 92.74 L0 105.33" class="st2"/></g><g id="shape14_37" transform="translate(191.402,-92.0194)"><title>path3803</title><path d="M0 92.74 L0 105.33 L0 92.74 Z" class="st1"/><path d="M0 92.74 L0 105.33" class="st2"/></g><g id="shape15_40" transform="translate(203.598,-92.0194)"><title>path3805</title><path d="M0 92.74 L0 105.33 L0 92.74 Z" class="st1"/><path d="M0 92.74 L0 105.33" class="st2"/></g><g id="shape16_43" transform="translate(215.795,-92.0194)"><title>path3807</title><path d="M0 92.74 L0 105.33 L0 92.74 Z" class="st1"/><path d="M0 92.74 L0 105.33" class="st2"/></g><g id="shape17_46" transform="translate(227.991,-92.0194)"><title>path3809</title><path d="M0 92.74 L0 105.33 L0 92.74 Z" class="st1"/><path d="M0 92.74 L0 105.33" class="st2"/></g><g id="shape18_49" transform="translate(240.187,-92.0194)"><title>path3811</title><path d="M0 92.74 L0 105.33 L0 92.74 Z" class="st1"/><path d="M0 92.74 L0 105.33" class="st2"/></g><g id="shape19_52" transform="translate(252.383,-92.0194)"><title>path3813</title><path d="M0 92.74 L0 105.33 L0 92.74 Z" class="st1"/><path d="M0 92.74 L0 105.33" class="st2"/></g><g id="shape20_55" transform="translate(264.58,-92.0194)"><title>path3815</title><path d="M0 92.74 L0 105.33 L0 92.74 Z" class="st1"/><path d="M0 92.74 L0 105.33" class="st2"/></g><g id="shape21_58" transform="translate(276.776,-92.0194)"><title>path3817</title><path d="M0 92.74 L0 105.33 L0 92.74 Z" class="st1"/><path d="M0 92.74 L0 105.33" class="st2"/></g><g id="shape22_61" transform="translate(288.972,-92.0194)"><title>path3819</title><path d="M0 92.74 L0 105.33 L0 92.74 Z" class="st1"/><path d="M0 92.74 L0 105.33" class="st2"/></g><g id="shape23_64" transform="translate(301.169,-92.0194)"><title>path3821</title><path d="M0 92.74 L0 105.33 L0 92.74 Z" class="st1"/><path d="M0 92.74 L0 105.33" class="st2"/></g><g id="shape24_67" transform="translate(313.365,-92.0194)"><title>path3823</title><path d="M0 92.74 L0 105.33 L0 92.74 Z" class="st1"/><path d="M0 92.74 L0 105.33" class="st2"/></g><g id="shape25_70" transform="translate(325.561,-92.0194)"><title>path3825</title><path d="M0 92.74 L0 105.33 L0 92.74 Z" class="st1"/><path d="M0 92.74 L0 105.33" class="st2"/></g><g id="shape26_73" transform="translate(337.757,-92.0194)"><title>path3827</title><path d="M0 92.74 L0 105.33 L0 92.74 Z" class="st1"/><path d="M0 92.74 L0 105.33" class="st2"/></g><g id="shape27_76" transform="translate(349.954,-92.0194)"><title>path3829</title><path d="M0 92.74 L0 105.33 L0 92.74 Z" class="st1"/><path d="M0 92.74 L0 105.33" class="st2"/></g><g id="shape28_79" transform="translate(362.15,-92.0194)"><title>path3831</title><path d="M0 92.74 L0 105.33 L0 92.74 Z" class="st1"/><path d="M0 92.74 L0 105.33" class="st2"/></g><g id="shape29_82" transform="translate(374.346,-92.0194)"><title>path3833</title><path d="M0 92.74 L0 105.33 L0 92.74 Z" class="st1"/><path d="M0 92.74 L0 105.33" class="st2"/></g><g id="shape30_85" transform="translate(386.542,-92.0194)"><title>path3835</title><path d="M0 92.74 L0 105.33 L0 92.74 Z" class="st1"/><path d="M0 92.74 L0 105.33" class="st2"/></g><g id="shape31_88" transform="translate(398.739,-92.0194)"><title>path3837</title><path d="M0 92.74 L0 105.33 L0 92.74 Z" class="st1"/><path d="M0 92.74 L0 105.33" class="st2"/></g><g id="shape32_91" transform="translate(410.935,-92.0194)"><title>path3839</title><path d="M0 92.74 L0 105.33 L0 92.74 Z" class="st1"/><path d="M0 92.74 L0 105.33" class="st2"/></g><g id="shape33_94" transform="translate(423.131,-92.0194)"><title>path3841</title><path d="M0 92.74 L0 105.33 L0 92.74 Z" class="st1"/><path d="M0 92.74 L0 105.33" class="st2"/></g><g id="shape34_97" transform="translate(435.327,-92.0194)"><title>path3843</title><path d="M0 92.74 L0 105.33 L0 92.74 Z" class="st1"/><path d="M0 92.74 L0 105.33" class="st2"/></g><g id="shape37_100" transform="translate(68.825,-93.5311)"><title>text3851</title><desc>31</desc><rect x="0" y="96.0351" width="13.55" height="9.29355" class="st3"/><text x="1.95" y="103.08" class="st4">31</text></g><g id="shape38_103" transform="translate(93.174,-93.5311)"><title>text3859</title><desc>29</desc><rect x="0" y="96.0351" width="13.55" height="9.29355" class="st3"/><text x="1.95" y="103.08" class="st4">29</text></g><g id="shape39_106" transform="translate(105.461,-93.5311)"><title>text3863</title><desc>28</desc><rect x="0" y="96.0351" width="13.55" height="9.29355" class="st3"/><text x="1.95" y="103.08" class="st4">28</text></g><g id="shape40_109" transform="translate(117.689,-93.5311)"><title>text3867</title><desc>27</desc><rect x="0" y="96.0351" width="13.55" height="9.29355" class="st3"/><text x="1.95" y="103.08" class="st4">27</text></g><g id="shape41_112" transform="translate(129.757,-93.5311)"><title>text3871</title><desc>26</desc><rect x="0" y="96.0351" width="13.55" height="9.29355" class="st3"/><text x="1.95" y="103.08" class="st4">26</text></g><g id="shape42_115" transform="translate(142.001,-93.5311)"><title>text3875</title><desc>25</desc><rect x="0" y="96.0351" width="13.55" height="9.29355" class="st3"/><text x="1.95" y="103.08" class="st4">25</text></g><g id="shape43_118" transform="translate(154.276,-93.5311)"><title>text3879</title><desc>24</desc><rect x="0" y="96.0351" width="13.55" height="9.29355" class="st3"/><text x="1.95" y="103.08" class="st4">24</text></g><g id="shape44_121" transform="translate(166.393,-93.5311)"><title>text3883</title><desc>23</desc><rect x="0" y="96.0351" width="13.55" height="9.29355" class="st3"/><text x="1.95" y="103.08" class="st4">23</text></g><g id="shape45_124" transform="translate(178.669,-93.5311)"><title>text3887</title><desc>22</desc><rect x="0" y="96.0351" width="13.55" height="9.29355" class="st3"/><text x="1.95" y="103.08" class="st4">22</text></g><g id="shape46_127" transform="translate(190.833,-93.5311)"><title>text3891</title><desc>21</desc><rect x="0" y="96.0351" width="13.55" height="9.29355" class="st3"/><text x="1.95" y="103.08" class="st4">21</text></g><g id="shape47_130" transform="translate(203.029,-93.5311)"><title>text3895</title><desc>20</desc><rect x="0" y="96.0351" width="13.55" height="9.29355" class="st3"/><text x="1.95" y="103.08" class="st4">20</text></g><g id="shape48_133" transform="translate(215.029,-93.5311)"><title>text3899</title><desc>19</desc><rect x="0" y="96.0351" width="13.55" height="9.29355" class="st3"/><text x="1.95" y="103.08" class="st4">19</text></g><g id="shape49_136" transform="translate(227.316,-93.5311)"><title>text3903</title><desc>18</desc><rect x="0" y="96.0351" width="13.55" height="9.29355" class="st3"/><text x="1.95" y="103.08" class="st4">18</text></g><g id="shape50_139" transform="translate(239.544,-93.5311)"><title>text3907</title><desc>17</desc><rect x="0" y="96.0351" width="13.55" height="9.29355" class="st3"/><text x="1.95" y="103.08" class="st4">17</text></g><g id="shape51_142" transform="translate(251.612,-93.5311)"><title>text3911</title><desc>16</desc><rect x="0" y="96.0351" width="13.55" height="9.29355" class="st3"/><text x="1.95" y="103.08" class="st4">16</text></g><g id="shape52_145" transform="translate(263.856,-93.5311)"><title>text3928</title><desc>15</desc><rect x="0" y="96.0351" width="13.55" height="9.29355" class="st3"/><text x="1.95" y="103.08" class="st4">15</text></g><g id="shape53_148" transform="translate(276.131,-93.5311)"><title>text3932</title><desc>14</desc><rect x="0" y="96.0351" width="13.55" height="9.29355" class="st3"/><text x="1.95" y="103.08" class="st4">14</text></g><g id="shape54_151" transform="translate(288.248,-93.5311)"><title>text3936</title><desc>13</desc><rect x="0" y="96.0351" width="13.55" height="9.29355" class="st3"/><text x="1.95" y="103.08" class="st4">13</text></g><g id="shape55_154" transform="translate(300.524,-93.5311)"><title>text3940</title><desc>12</desc><rect x="0" y="96.0351" width="13.55" height="9.29355" class="st3"/><text x="1.95" y="103.08" class="st4">12</text></g><g id="shape56_157" transform="translate(312.688,-93.5311)"><title>text3944</title><desc>11</desc><rect x="0" y="96.0351" width="13.55" height="9.29355" class="st3"/><text x="1.95" y="103.08" class="st4">11</text></g><g id="shape57_160" transform="translate(324.884,-93.5311)"><title>text3948</title><desc>10</desc><rect x="0" y="96.0351" width="13.55" height="9.29355" class="st3"/><text x="1.95" y="103.08" class="st4">10</text></g><g id="shape58_163" transform="translate(340.278,-93.5311)"><title>text3952</title><desc>9</desc><rect x="0" y="96.0351" width="6.8" height="9.29355" class="st3"/><text x="0.99" y="103.08" class="st4">9</text></g><g id="shape59_166" transform="translate(352.648,-93.5311)"><title>text3956</title><desc>8</desc><rect x="0" y="96.0351" width="6.8" height="9.29355" class="st3"/><text x="0.99" y="103.08" class="st4">8</text></g><g id="shape60_169" transform="translate(364.914,-93.5311)"><title>text3960</title><desc>7</desc><rect x="0" y="96.0351" width="6.8" height="9.29355" class="st3"/><text x="0.99" y="103.08" class="st4">7</text></g><g id="shape61_172" transform="translate(376.863,-93.5311)"><title>text3964</title><desc>6</desc><rect x="0" y="96.0351" width="6.8" height="9.29355" class="st3"/><text x="0.99" y="103.08" class="st4">6</text></g><g id="shape62_175" transform="translate(389.254,-93.5311)"><title>text3968</title><desc>5</desc><rect x="0" y="96.0351" width="6.8" height="9.29355" class="st3"/><text x="0.99" y="103.08" class="st4">5</text></g><g id="shape63_178" transform="translate(401.495,-93.5311)"><title>text3972</title><desc>4</desc><rect x="0" y="96.0351" width="6.8" height="9.29355" class="st3"/><text x="0.99" y="103.08" class="st4">4</text></g><g id="shape64_181" transform="translate(413.648,-93.5311)"><title>text3976</title><desc>3</desc><rect x="0" y="96.0351" width="6.8" height="9.29355" class="st3"/><text x="0.99" y="103.08" class="st4">3</text></g><g id="shape65_184" transform="translate(425.969,-93.5311)"><title>text3980</title><desc>2</desc><rect x="0" y="96.0351" width="6.8" height="9.29355" class="st3"/><text x="0.99" y="103.08" class="st4">2</text></g><g id="shape66_187" transform="translate(438.026,-93.5311)"><title>text3984</title><desc>1</desc><rect x="0" y="96.0351" width="6.8" height="9.29355" class="st3"/><text x="0.99" y="103.08" class="st4">1</text></g><g id="shape67_190" transform="translate(450.22,-93.5311)"><title>text3988</title><desc>0</desc><rect x="0" y="96.0351" width="6.8" height="9.29355" class="st3"/><text x="0.99" y="103.08" class="st4">0</text></g><g id="shape69_193" transform="translate(70.47,-74.118)"><title>rect2906</title><rect x="0" y="87.0343" width="364.857" height="18.2944" class="st5"/></g><g id="shape70_195" transform="translate(435.327,-74.1181)"><title>rect2979</title><rect x="0" y="87.0343" width="12.1963" height="18.2944" class="st5"/></g><g id="shape71_197" transform="translate(447.524,-74.1181)"><title>rect2981</title><rect x="0" y="87.0343" width="12.1963" height="18.2944" class="st5"/></g><g id="shape72_199" transform="translate(50.22,-77.6869)"><title>text4008</title><desc>Fault</desc><rect x="0" y="92.9373" width="20.25" height="12.3914" class="st6"/><text x="0" y="101.53" class="st7">Fault</text></g><g id="shape73_202" transform="translate(241.533,-78.5093)"><title>text4028</title><desc>Ignored</desc><rect x="0" y="95.0025" width="52.55" height="10.3262" class="st3"/><text x="0" y="102.57" class="st7">Ignored</text></g><g id="shape74_205" transform="translate(439.588,-77.6438)"><title>text4032</title><desc>0</desc><rect x="0" y="95.0025" width="7.55" height="10.3262" class="st6"/><text x="0" y="102.57" class="st7">0</text></g><g id="shape75_208" transform="translate(451.784,-77.6438)"><title>text4036</title><desc>0</desc><rect x="0" y="95.0025" width="7.55" height="10.3262" class="st6"/><text x="0" y="102.57" class="st7">0</text></g><g id="shape84_211" transform="translate(70.47,-25.3133)"><title>rect2949</title><rect x="0" y="87.0343" width="145.325" height="18.2944" class="st5"/></g><g id="shape85_213" transform="translate(215.795,-25.3133)"><title>rect2951</title><rect x="0" y="87.0343" width="12.1963" height="18.2944" class="st5"/></g><g id="shape86_215" transform="translate(227.991,-25.3133)"><title>rect2953</title><rect x="0" y="87.0343" width="12.1963" height="18.2944" class="st5"/></g><g id="shape87_217" transform="translate(276.776,-25.3133)"><title>rect2955</title><rect x="0" y="87.0343" width="36.5888" height="18.2944" class="st5"/></g><g id="shape88_219" transform="translate(313.365,-25.3133)"><title>rect2957</title><rect x="0" y="87.0343" width="24.3925" height="18.2944" class="st5"/></g><g id="shape89_221" transform="translate(337.757,-25.3133)"><title>rect2959</title><rect x="0" y="87.0343" width="12.1963" height="18.2944" class="st5"/></g><g id="shape90_223" transform="translate(349.954,-25.3133)"><title>rect2961</title><rect x="0" y="87.0343" width="48.7851" height="18.2944" class="st5"/></g><g id="shape91_225" transform="translate(240.187,-25.3133)"><title>rect2963</title><rect x="0" y="87.0343" width="12.1963" height="18.2944" class="st5"/></g><g id="shape92_227" transform="translate(252.383,-25.3133)"><title>rect2965</title><rect x="0" y="87.0343" width="12.1963" height="18.2944" class="st5"/></g><g id="shape93_229" transform="translate(264.58,-25.3133)"><title>rect2967</title><rect x="0" y="87.0343" width="12.1963" height="18.2944" class="st5"/></g><g id="shape94_231" transform="translate(398.739,-25.3133)"><title>rect2969</title><rect x="0" y="87.0343" width="12.1963" height="18.2944" class="st5"/></g><g id="shape95_233" transform="translate(410.935,-25.3133)"><title>rect2971</title><rect x="0" y="87.0343" width="12.1963" height="18.2944" class="st5"/></g><g id="shape96_235" transform="translate(423.131,-25.3133)"><title>rect2973</title><rect x="0" y="87.0343" width="12.1963" height="18.2944" class="st5"/></g><g id="shape97_237" transform="translate(435.327,-25.3133)"><title>rect2975</title><rect x="0" y="87.0343" width="12.1963" height="18.2944" class="st5"/></g><g id="shape98_239" transform="translate(447.524,-25.3133)"><title>rect2977</title><rect x="0" y="87.0343" width="12.1963" height="18.2944" class="st5"/></g><g id="shape99_241" transform="translate(41.22,-28.3581)"><title>text4016</title><desc>Section</desc><rect x="0" y="92.9373" width="27" height="12.3914" class="st6"/><text x="0" y="101.53" class="st7">Section</text></g><g id="shape100_244" transform="translate(439.882,-28.7865)"><title>text4048</title><desc>1</desc><rect x="0" y="95.0025" width="7.55" height="10.3262" class="st6"/><text x="0" y="102.57" class="st7">1</text></g><g id="shape101_247" transform="translate(451.784,-28.839)"><title>text4052</title><desc>0</desc><rect x="0" y="95.0025" width="7.55" height="10.3262" class="st6"/><text x="0" y="102.57" class="st7">0</text></g><g id="shape102_250" transform="translate(98.015,-28.7991)"><title>text4185</title><desc>Section Base Address</desc><rect x="0" y="95.0025" width="85.6534" height="10.3262" class="st3"/><text x="0" y="102.57" class="st7">Section Base Address</text></g><g id="shape103_253" transform="translate(232.251,-28.839)"><title>text4199</title><desc>0</desc><rect x="0" y="95.0025" width="7.55" height="10.3262" class="st6"/><text x="0" y="102.57" class="st7">0</text></g><g id="shape105_256" transform="translate(256.171,-28.7991)"><title>text4207</title><desc>S</desc><rect x="0" y="95.0025" width="7.55" height="10.3262" class="st3"/><text x="0" y="102.57" class="st7">S</text></g><g id="shape106_259" transform="translate(169.809,74.5944) rotate(-90)"><title>text4211.106</title><desc>APX</desc><rect x="0" y="99.3591" width="5.45" height="5.96963" class="st3"/><text x="8.55" y="99.36" writing-mode="tb-rl" class="st8">A<tspan dx="-1.2em" y="22.08em" class="st9">P</tspan><tspan dx="-1.2em" y="22.08em" class="st9">X</tspan></text></g><g id="shape107_264" transform="translate(287.118,-28.7991)"><title>text4215</title><desc>TEX</desc><rect x="0" y="95.0025" width="22.55" height="10.3262" class="st3"/><text x="0" y="102.57" class="st7">TEX</text></g><g id="shape108_267" transform="translate(321.091,-28.7991)"><title>text4219</title><desc>AP</desc><rect x="0" y="95.0025" width="15.05" height="10.3262" class="st3"/><text x="0" y="102.57" class="st7">AP</text></g><g id="shape109_270" transform="translate(341.368,-28.7991)"><title>text4223</title><desc>P</desc><rect x="0" y="95.0025" width="7.55" height="10.3262" class="st3"/><text x="0" y="102.42" class="st10">P</text></g><g id="shape110_273" transform="translate(362.762,-28.8495)"><title>text4227</title><desc>Domain</desc><rect x="0" y="95.0025" width="45.05" height="10.3262" class="st6"/><text x="0" y="102.57" class="st7">Domain</text></g><g id="shape111_276" transform="translate(302.716,75.7194) rotate(-90)"><title>text4231.111</title><desc>XN</desc><rect x="0" y="99.8263" width="7.43967" height="5.50241" class="st3"/><text x="6.85" y="99.83" writing-mode="tb-rl" class="st8">X<tspan dx="-1.2em" y="22.184em" class="st9">N</tspan></text></g><g id="shape112_280" transform="translate(414.409,-28.7991)"><title>text4235</title><desc>C</desc><rect x="0" y="95.0025" width="7.55" height="10.3262" class="st3"/><text x="0" y="102.57" class="st7">C</text></g><g id="shape113_283" transform="translate(426.801,-28.7991)"><title>text4239</title><desc>B</desc><rect x="0" y="95.0025" width="7.55" height="10.3262" class="st3"/><text x="0" y="102.57" class="st7">B</text></g><g id="shape114_286" transform="translate(116.281,75.7194) rotate(-90)"><title>text4243</title><desc>SBZ</desc><rect x="0" y="103.387" width="7.78821" height="1.94155" class="st3"/><text x="9.72" y="103.39" writing-mode="tb-rl" class="st8">S<tspan dx="-1.2em" y="22.975em" class="st9">B</tspan><tspan dx="-1.2em" y="22.975em" class="st9">Z</tspan></text></g><g id="shape116_291" transform="translate(70.47,-0.940417)"><title>rect2853</title><rect x="0" y="87.0343" width="96.5396" height="18.2944" class="st5"/></g><g id="shape117_293" transform="translate(167.01,-0.940417)"><title>rect2855</title><rect x="0" y="87.0343" width="60.9813" height="18.2944" class="st5"/></g><g id="shape118_295" transform="translate(227.991,-0.940417)"><title>rect2857</title><rect x="0" y="87.0343" width="12.1963" height="18.2944" class="st5"/></g><g id="shape119_297" transform="translate(276.776,-0.940417)"><title>rect2859</title><rect x="0" y="87.0343" width="36.5888" height="18.2944" class="st5"/></g><g id="shape120_299" transform="translate(313.365,-0.940417)"><title>rect2861</title><rect x="0" y="87.0343" width="24.3925" height="18.2944" class="st5"/></g><g id="shape121_301" transform="translate(337.757,-0.940417)"><title>rect2863</title><rect x="0" y="87.0343" width="12.1963" height="18.2944" class="st5"/></g><g id="shape122_303" transform="translate(349.954,-0.940417)"><title>rect2865</title><rect x="0" y="87.0343" width="48.7851" height="18.2944" class="st5"/></g><g id="shape123_305" transform="translate(240.187,-0.940417)"><title>rect2869</title><rect x="0" y="87.0343" width="12.1963" height="18.2944" class="st5"/></g><g id="shape124_307" transform="translate(252.383,-0.940417)"><title>rect2871</title><rect x="0" y="87.0343" width="12.1963" height="18.2944" class="st5"/></g><g id="shape125_309" transform="translate(264.58,-0.940417)"><title>rect2873</title><rect x="0" y="87.0343" width="12.1963" height="18.2944" class="st5"/></g><g id="shape126_311" transform="translate(398.739,-0.940417)"><title>rect2877</title><rect x="0" y="87.0343" width="12.1963" height="18.2944" class="st5"/></g><g id="shape127_313" transform="translate(410.935,-0.940417)"><title>rect2879</title><rect x="0" y="87.0343" width="12.1963" height="18.2944" class="st5"/></g><g id="shape128_315" transform="translate(423.131,-0.940417)"><title>rect2881</title><rect x="0" y="87.0343" width="12.1963" height="18.2944" class="st5"/></g><g id="shape129_317" transform="translate(435.327,-0.940417)"><title>rect2883</title><rect x="0" y="87.0343" width="12.1963" height="18.2944" class="st5"/></g><g id="shape130_319" transform="translate(447.524,-0.940417)"><title>rect2885</title><rect x="0" y="87.0343" width="12.1963" height="18.2944" class="st5"/></g><g id="shape131_321" transform="translate(22.604,-4.17883)"><title>text4020</title><desc>Supersection</desc><rect x="0" y="92.9373" width="46.741" height="12.3914" class="st6"/><text x="0" y="101.53" class="st7">Supersection</text></g><g id="shape132_324" transform="translate(439.882,-4.41362)"><title>text4056</title><desc>1</desc><rect x="0" y="95.0025" width="7.55" height="10.3262" class="st6"/><text x="0" y="102.42" class="st10">1</text></g><g id="shape133_327" transform="translate(451.784,-4.46615)"><title>text4060</title><desc>0</desc><rect x="0" y="95.0025" width="7.55" height="10.3262" class="st6"/><text x="0" y="102.42" class="st10">0</text></g><g id="shape134_330" transform="translate(71.1684,-0.84004)"><title>text4189</title><desc>Supersection Base Address</desc><rect x="0" y="87.8095" width="95.4549" height="17.5192" class="st6"/><text x="24.38" y="94.17" class="st7">Supersection<tspan x="22.83" dy="9.5999616" class="st9">Base Address</tspan></text></g><g id="shape135_334" transform="translate(190.671,-4.42618)"><title>text4195</title><desc>SBZ</desc><rect x="0" y="95.0025" width="22.55" height="10.3262" class="st3"/><text x="0" y="102.57" class="st7">SBZ</text></g><g id="shape136_337" transform="translate(232.545,-4.41357)"><title>text4301</title><desc>1</desc><rect x="0" y="95.0025" width="7.55" height="10.3262" class="st6"/><text x="0" y="102.57" class="st7">1</text></g><g id="shape138_340" transform="translate(256.171,-4.45701)"><title>text4311</title><desc>S</desc><rect x="0" y="95.0025" width="7.55" height="10.3262" class="st3"/><text x="0" y="102.57" class="st7">S</text></g><g id="shape140_343" transform="translate(288.256,-4.45701)"><title>text4319</title><desc>TEX</desc><rect x="0" y="95.0025" width="22.55" height="10.3262" class="st3"/><text x="0" y="102.57" class="st7">TEX</text></g><g id="shape141_346" transform="translate(321.091,-4.45701)"><title>text4323</title><desc>AP</desc><rect x="0" y="95.0025" width="15.05" height="10.3262" class="st3"/><text x="0" y="102.57" class="st7">AP</text></g><g id="shape142_349" transform="translate(362.762,-4.50743)"><title>text4327</title><desc>Domain</desc><rect x="0" y="95.0025" width="45.05" height="10.3262" class="st6"/><text x="0" y="102.57" class="st7">Domain</text></g><g id="shape144_352" transform="translate(414.409,-4.45701)"><title>text4335</title><desc>C</desc><rect x="0" y="95.0025" width="7.55" height="10.3262" class="st3"/><text x="0" y="102.42" class="st10">C</text></g><g id="shape145_355" transform="translate(426.801,-4.45701)"><title>text4339</title><desc>B</desc><rect x="0" y="95.0025" width="7.55" height="10.3262" class="st3"/><text x="0" y="102.42" class="st10">B</text></g><g id="shape146_358" transform="translate(341.368,-4.45701)"><title>text4343</title><desc>P</desc><rect x="0" y="95.0025" width="7.55" height="10.3262" class="st3"/><text x="0" y="102.57" class="st7">P</text></g><g id="shape148_361" transform="translate(70.47,-49.7255)"><title>rect2904</title><rect x="0" y="87.0343" width="267.5" height="18.2944" class="st5"/></g><g id="shape149_363" transform="translate(337.97,-49.7255)"><title>rect2935</title><rect x="0" y="87.0343" width="12.1459" height="18.2944" class="st5"/></g><g id="shape150_365" transform="translate(350.116,-49.7255)"><title>rect2937</title><rect x="0" y="87.0343" width="48.5835" height="18.2944" class="st5"/></g><g id="shape151_367" transform="translate(398.7,-49.7255)"><title>rect2939</title><rect x="0" y="87.0343" width="36.4376" height="18.2944" class="st5"/></g><g id="shape152_369" transform="translate(435.137,-49.7255)"><title>rect2945</title><rect x="0" y="87.0343" width="12.1459" height="18.2944" class="st5"/></g><g id="shape153_371" transform="translate(447.283,-49.7255)"><title>rect2947</title><rect x="0" y="87.0343" width="12.1459" height="18.2944" class="st5"/></g><g id="shape154_373" transform="translate(0.72,-50.3038)"><title>text4012</title><desc>Pointer to 2nd level page table</desc><rect x="0" y="88.0378" width="69.75" height="17.2909" class="st6"/><text x="0" y="94.28" class="st7">Pointer to <tspan x="0" dy="9.5999616" class="st9">2</tspan><tspan dy="-0.235em" class="st11">nd</tspan><tspan dy="1.223995104" class="st9"> </tspan>level page table</text></g><g id="shape155_379" transform="translate(439.364,-53.2512)"><title>text4040</title><desc>0</desc><rect x="0" y="95.0025" width="7.55" height="10.3262" class="st6"/><text x="0" y="102.42" class="st10">0</text></g><g id="shape156_382" transform="translate(451.803,-53.1987)"><title>text4044</title><desc>1</desc><rect x="0" y="95.0025" width="7.55" height="10.3262" class="st6"/><text x="0" y="102.42" class="st10">1</text></g><g id="shape157_385" transform="translate(158.812,-54.0537)"><title>text4181</title><desc>Level 2 Descriptor Base Address</desc><rect x="0" y="95.0025" width="131.019" height="10.3262" class="st3"/><text x="0" y="102.57" class="st7">Level 2 Descriptor Base Address</text></g><g id="shape158_388" transform="translate(341.551,-53.2113)"><title>text4347</title><desc>P</desc><rect x="0" y="95.0025" width="7.55" height="10.3262" class="st3"/><text x="0" y="102.57" class="st7">P</text></g><g id="shape159_391" transform="translate(362.779,-53.2617)"><title>text4351</title><desc>Domain</desc><rect x="0" y="95.0025" width="45.05" height="10.3262" class="st6"/><text x="0" y="102.57" class="st7">Domain</text></g><g id="shape160_394" transform="translate(410.07,-53.2421)"><title>text4355</title><desc>SBZ</desc><rect x="0" y="95.0025" width="22.55" height="10.3262" class="st3"/><text x="0" y="102.57" class="st7">SBZ</text></g><g id="shape161_397" transform="translate(81.0213,-93.5311)"><title>text3855</title><desc>30</desc><rect x="0" y="96.0351" width="13.55" height="9.29355" class="st3"/><text x="1.95" y="103.08" class="st4">30</text></g><g id="shape1_400" transform="translate(169.809,99.1694) rotate(-90)"><title>text4211</title><desc>APX</desc><rect x="0" y="99.3591" width="5.45" height="5.96963" class="st3"/><text x="8.55" y="99.36" writing-mode="tb-rl" class="st8">A<tspan dx="-1.2em" y="22.08em" class="st9">P</tspan><tspan dx="-1.2em" y="22.08em" class="st9">X</tspan></text></g><g id="shape36_405" transform="translate(303.841,99.6893) rotate(-90)"><title>text4231</title><desc>XN</desc><rect x="0" y="99.8263" width="7.43967" height="5.50241" class="st3"/><text x="6.85" y="99.83" writing-mode="tb-rl" class="st8">X<tspan dx="-1.2em" y="22.184em" class="st9">N</tspan></text></g><g id="shape139_409" transform="translate(144.091,75.7194) rotate(-90)"><title>text4231.139</title><desc>nG</desc><rect x="0" y="99.8263" width="7.43967" height="5.50241" class="st3"/><text x="7.89" y="99.83" writing-mode="tb-rl" class="st12">n<tspan dx="-1.2em" y="16.638em" class="st9">G</tspan></text></g><g id="shape143_413" transform="translate(144.091,99.3444) rotate(-90)"><title>text4231.143</title><desc>nG</desc><rect x="0" y="99.8263" width="7.43967" height="5.50241" class="st6"/><text x="7.89" y="99.83" writing-mode="tb-rl" class="st12">n<tspan dx="-1.2em" y="16.638em" class="st9">G</tspan></text></g></g></svg>
