
<!-- Generated by Microsoft Visio 11.0, SVG Export, v1.0 generating_physical_address_from_level1_page_table.svg Page-1 -->
<!DOCTYPE svg
  PUBLIC "-//W3C//DTD SVG 1.1//EN" "http://www.w3.org/Graphics/SVG/1.1/DTD/svg11.dtd">
<svg xmlns:ev="http://www.w3.org/2001/xml-events" xmlns:xlink="http://www.w3.org/1999/xlink" xmlns="http://www.w3.org/2000/svg" xmlns:v="http://schemas.microsoft.com/visio/2003/SVGExtensions/" width="523.52928" height="439.0704" viewBox="0 0 392.647 329.303" xml:space="preserve" color-interpolation-filters="sRGB" class="st11" preserveAspectRatio="xMidYMid meet" zoomAndPan="magnify" version="1.1" contentScriptType="text/ecmascript" contentStyleType="text/css"><style type="text/css" xml:space="preserve">
	
		.st1 {fill:none;stroke:none;stroke-linecap:butt;stroke-width:0.75}
		.st2 {fill:#000000;font-family:Arial,Helvetica,sans-serif;font-size:0.666664em}
		.st3 {fill:#ffffff;stroke:#000000;stroke-linecap:butt;stroke-opacity:0.74;stroke-width:0.903543}
		.st4 {fill:#000000;font-family:'Lucida Sans Typewriter','Lucida Console','Courier New',Courier,monospace;font-size:0.666664em}
		.st5 {fill:none}
		.st6 {stroke:#000000;stroke-linecap:butt;stroke-width:0.75}
		.st7 {fill:#000000;stroke:#000000;stroke-linecap:butt;stroke-width:0.4}
		.st8 {fill:none;stroke:#000000;stroke-linecap:butt;stroke-opacity:0.74;stroke-width:0.903543}
		.st9 {stroke:#000000;stroke-dasharray:1.48819,0.744094;stroke-linecap:butt;stroke-width:0.744094}
		.st10 {font-size:1em}
		.st11 {fill:none;fill-rule:evenodd;font-size:12px;overflow:visible;stroke-linecap:square;stroke-miterlimit:3}
	
	</style><g><title>Page-1</title><g id="group4_1" transform="translate(58.4202,-277.695)"><title>g4023</title><g id="shape5_2" transform="translate(27.8882,-40.057)"><title>text5645</title><desc>Translation Table Base Address</desc><rect x="0" y="318.503" width="139.301" height="10.8" class="st1"/><text x="0" y="326.3" class="st2">Translation Table Base Address</text></g><g id="shape6_5" transform="translate(5.31803,-10.8673)"><title>rect2892</title><rect x="0" y="314.12" width="106.299" height="15.1825" class="st3"/></g><g id="shape7_7" transform="translate(-0.025,5.68434E-014)"><title>text4023</title><desc>31</desc><rect x="0" y="319.403" width="16.55" height="9.9" class="st1"/><text x="3.45" y="326.75" class="st4">31</text></g><g id="shape8_10" transform="translate(97.6591,-0.419843)"><title>text4027</title><desc>14</desc><rect x="0" y="319.403" width="16.55" height="9.9" class="st1"/><text x="3.45" y="326.75" class="st4">14</text></g><g id="shape9_13" transform="translate(5.31803,-32.1271)"><title>path149</title><path d="M0 329.3 C0 329.3 0.86 325.93 2.55 325.05 C4.24 324.17 7.65 323.99 7.65 323.99 C7.65 323.99 183.69 323.99         183.69 323.99 C183.69 323.99 186.24 323.99 188.79 325.05 C191.34 326.11 191.34 329.3 191.34 329.3 L0         329.3 Z" class="st5"/><path d="M0 329.3 C0 329.3 0.86 325.93 2.55 325.05 C4.24 324.17 7.65 323.99 7.65 323.99 C7.65 323.99 183.69 323.99         183.69 323.99 C183.69 323.99 186.24 323.99 188.79 325.05 C191.34 326.11 191.34 329.3 191.34 329.3" class="st6"/></g><g id="shape10_16" transform="translate(116.932,-10.8673)"><title>rect2896</title><rect x="0" y="314.12" width="79.7244" height="15.1825" class="st3"/></g><g id="shape11_18" transform="translate(113.604,-0.419843)"><title>text4031</title><desc>13</desc><rect x="0" y="319.403" width="16.55" height="9.9" class="st1"/><text x="3.45" y="326.75" class="st4">13</text></g><g id="shape12_21" transform="translate(189.665,-0.419843)"><title>text4035</title><desc>0</desc><rect x="0" y="319.403" width="8.3" height="9.9" class="st1"/><text x="1.74" y="326.75" class="st4">0</text></g></g><g id="group13_24" transform="translate(207.242,-197.446)"><title>Sheet.13</title><g id="shape14_25"><title>path4100</title><path d="M26.55 292.09 L26.57 310.7 L0 310.7 L0 329.3 L26.55 292.09 Z" class="st5"/><path d="M26.55 292.09 L26.57 310.7 L0 310.7 L0 329.3" class="st6"/></g><g id="group15_28" transform="translate(327.803,324.803) rotate(90)"><title>Arrow1Mend-1</title><g id="shape16_29" transform="translate(5.25,655.605) rotate(180)"><title>path3821-5</title><path d="M3.75 327.8 L5.25 326.3 L0 327.8 L5.25 329.3 L3.75 327.8 Z" class="st7"/></g></g></g><g id="group17_31" transform="translate(196.609,-223.784)"><title>g3082</title><g id="shape18_32" transform="translate(60.2379,-40.057)"><title>text3043</title><desc>Virtual Address</desc><rect x="0" y="318.503" width="135.05" height="10.8" class="st1"/><text x="0" y="326.3" class="st2">Virtual Address</text></g><g id="shape19_35" transform="translate(5.31802,-10.8673)"><title>rect3047</title><rect x="0" y="314.12" width="63.7795" height="15.1825" class="st3"/></g><g id="shape20_37" transform="translate(-0.025,5.68434E-014)"><title>text3049</title><desc>31</desc><rect x="0" y="319.403" width="16.55" height="9.9" class="st1"/><text x="3.45" y="326.75" class="st4">31</text></g><g id="shape21_40" transform="translate(55.1394,-0.419812)"><title>text3053</title><desc>20</desc><rect x="0" y="319.403" width="16.55" height="9.9" class="st1"/><text x="3.45" y="326.75" class="st4">20</text></g><g id="shape22_43" transform="translate(5.31803,-32.1271)"><title>path3057</title><path d="M0 329.3 C0 329.3 0.79 325.93 2.34 325.05 C3.89 324.17 7.02 323.99 7.02 323.99 C7.02 323.99 168.38 323.99         168.38 323.99 C168.38 323.99 170.72 323.99 173.06 325.05 C175.39 326.11 175.39 329.3 175.39 329.3 L0         329.3 Z" class="st5"/><path d="M0 329.3 C0 329.3 0.79 325.93 2.34 325.05 C3.89 324.17 7.02 323.99 7.02 323.99 C7.02 323.99 168.38 323.99         168.38 323.99 C168.38 323.99 170.72 323.99 173.06 325.05 C175.39 326.11 175.39 329.3 175.39 329.3" class="st6"/></g><g id="shape23_46" transform="translate(74.4125,-10.8673)"><title>rect3059</title><rect x="0" y="314.12" width="106.299" height="15.1825" class="st3"/></g><g id="shape24_48" transform="translate(71.0843,-0.419812)"><title>text3061</title><desc>19</desc><rect x="0" y="319.403" width="16.55" height="9.9" class="st1"/><text x="3.45" y="326.75" class="st4">19</text></g><g id="shape25_51" transform="translate(173.72,-0.419812)"><title>text3065</title><desc>0</desc><rect x="0" y="319.403" width="8.3" height="9.9" class="st1"/><text x="1.74" y="326.75" class="st4">0</text></g></g><g id="group26_54" transform="translate(58.4202,-147.561)"><title>g2903</title><g id="shape27_55" transform="translate(34.268,5.68434E-014)"><title>text3099</title><desc>First Level Descriptor Address</desc><rect x="0" y="318.503" width="270.05" height="10.8" class="st1"/><text x="0" y="326.3" class="st2">First Level Descriptor Address</text></g><g id="shape28_58" transform="translate(5.31803,-35.3521)"><title>rect3103</title><rect x="0" y="314.12" width="105.437" height="15.1825" class="st3"/></g><g id="shape29_60" transform="translate(-0.025,-24.1423)"><title>text3105</title><desc>31</desc><rect x="0" y="319.403" width="16.55" height="9.9" class="st1"/><text x="3.45" y="326.75" class="st4">31</text></g><g id="shape30_63" transform="translate(94.1394,-24.1423)"><title>text3109</title><desc>14</desc><rect x="0" y="319.403" width="16.55" height="9.9" class="st1"/><text x="3.45" y="326.75" class="st4">14</text></g><g id="shape31_66" transform="translate(4.45582,-13.7497)"><title>path3113</title><path d="M0 323.99 C0 323.99 0.86 327.36 2.55 328.24 C4.24 329.12 7.64 329.3 7.64 329.3 C7.64 329.3 183.36 329.3         183.36 329.3 C183.36 329.3 185.9 329.3 188.45 328.24 C191 327.18 191 323.99 191 323.99 L0 323.99 Z" class="st5"/><path d="M0 323.99 C0 323.99 0.86 327.36 2.55 328.24 C4.24 329.12 7.64 329.3 7.64 329.3 C7.64 329.3 183.36 329.3         183.36 329.3 C183.36 329.3 185.9 329.3 188.45 328.24 C191 327.18 191 323.99 191 323.99" class="st6"/></g><g id="shape32_69" transform="translate(116.07,-35.3521)"><title>rect3115</title><rect x="0" y="314.12" width="64.6417" height="15.1825" class="st3"/></g><g id="shape33_71" transform="translate(113.899,-24.1423)"><title>text3117</title><desc>13</desc><rect x="0" y="319.403" width="16.55" height="9.9" class="st1"/><text x="3.45" y="326.75" class="st4">13</text></g><g id="shape34_74" transform="translate(173.72,-24.1423)"><title>text3121</title><desc>2</desc><rect x="0" y="319.403" width="8.3" height="9.9" class="st1"/><text x="1.74" y="326.75" class="st4">2</text></g><g id="shape35_77" transform="translate(185.165,-35.3521)"><title>rect3138</title><rect x="0" y="314.12" width="10.6299" height="15.1825" class="st3"/></g><g id="shape36_79" transform="translate(183.946,-24.1423)"><title>text3140</title><desc>1</desc><rect x="0" y="319.403" width="8.3" height="9.9" class="st1"/><text x="1.74" y="326.75" class="st4">1</text></g><g id="shape37_82" transform="translate(189.611,-24.1423)"><title>text3144</title><desc>0</desc><rect x="0" y="319.403" width="8.3" height="9.9" class="st1"/><text x="1.74" y="326.75" class="st4">0</text></g></g><g id="group38_85" transform="translate(118.093,-198.096)"><title>Sheet.38</title><g id="shape39_86"><title>path3186</title><path d="M0 239.6 L0 329.3 L0 239.6 Z" class="st5"/><path d="M0 239.6 L0 329.3" class="st6"/></g><g id="group40_89" transform="translate(327.803,324.803) rotate(90)"><title>Arrow1Mend-1</title><g id="shape41_90" transform="translate(5.25,655.605) rotate(180)"><title>path3821-5</title><path d="M3.75 327.8 L5.25 326.3 L0 327.8 L5.25 329.3 L3.75 327.8 Z" class="st7"/></g></g></g><g id="shape42_92" transform="translate(0.903543,-126.344)"><title>rect2936</title><rect x="0" y="276.153" width="42.5197" height="53.1496" class="st8"/></g><g id="shape43_94" transform="translate(22.1634,-179.493)"><title>path2938</title><path d="M0 308.04 L0 326.27 L0 329.3 L0 308.04 Z" class="st5"/><path d="M0 308.04 L0 326.27 L0 329.3" class="st9"/></g><g id="shape44_97" transform="translate(22.1634,-105.084)"><title>path2940</title><path d="M0 308.04 L0 329.3 L0 308.04 Z" class="st5"/><path d="M0 308.04 L0 329.3" class="st9"/></g><g id="shape46_100" transform="translate(99.4652,-73.1516)"><title>text3758</title><desc>Section Base Address Descriptor</desc><rect x="0" y="318.503" width="279.05" height="10.8" class="st1"/><text x="0" y="326.3" class="st2">Section Base Address Descriptor</text></g><g id="shape47_103" transform="translate(63.7382,-108.504)"><title>rect3762</title><rect x="0" y="314.12" width="62.9173" height="15.1825" class="st3"/></g><g id="shape48_105" transform="translate(58.3951,-98.4514)"><title>text3764</title><desc>31</desc><rect x="0" y="319.403" width="16.55" height="9.9" class="st1"/><text x="3.45" y="326.75" class="st4">31</text></g><g id="shape49_108" transform="translate(152.56,-98.4514)"><title>text3768</title><desc>17</desc><rect x="0" y="319.403" width="16.55" height="9.9" class="st1"/><text x="3.45" y="326.75" class="st4">17</text></g><g id="shape50_111" transform="translate(62.876,-86.9014)"><title>path3772</title><path d="M0 323.99 C0 323.99 0.86 327.36 2.55 328.24 C4.24 329.12 7.64 329.3 7.64 329.3 C7.64 329.3 183.36 329.3 183.36        329.3 C183.36 329.3 185.9 329.3 188.45 328.24 C191 327.18 191 323.99 191 323.99 L0 323.99 Z" class="st5"/><path d="M0 323.99 C0 323.99 0.86 327.36 2.55 328.24 C4.24 329.12 7.64 329.3 7.64 329.3 C7.64 329.3 183.36 329.3 183.36        329.3 C183.36 329.3 185.9 329.3 188.45 328.24 C191 327.18 191 323.99 191 323.99" class="st6"/></g><g id="shape51_114" transform="translate(153.23,-108.504)"><title>rect3774</title><rect x="0" y="314.12" width="85.9016" height="15.1825" class="st3"/></g><g id="shape52_116" transform="translate(232.14,-98.4514)"><title>text3780</title><desc>2</desc><rect x="0" y="319.403" width="8.3" height="9.9" class="st1"/><text x="1.74" y="326.75" class="st4">2</text></g><g id="shape53_119" transform="translate(243.585,-108.504)"><title>rect3784</title><rect x="0" y="314.12" width="10.6299" height="15.1825" class="st3"/></g><g id="shape54_121" transform="translate(242.367,-98.4514)"><title>text3786</title><desc>1</desc><rect x="0" y="319.403" width="8.3" height="9.9" class="st1"/><text x="1.74" y="326.75" class="st4">1</text></g><g id="shape55_124" transform="translate(248.031,-98.4514)"><title>text3790</title><desc>0</desc><rect x="0" y="319.403" width="8.3" height="9.9" class="st1"/><text x="1.74" y="326.75" class="st4">0</text></g><g id="shape56_127" transform="translate(131.97,-107.741)"><title>rect3812</title><rect x="0" y="314.12" width="5.31496" height="15.1825" class="st3"/></g><g id="shape57_129" transform="translate(142.6,-107.741)"><title>rect3814</title><rect x="0" y="314.12" width="5.31496" height="15.1825" class="st3"/></g><g id="shape58_131" transform="translate(125.985,-98.4514)"><title>text3816</title><desc>19</desc><rect x="0" y="319.403" width="16.55" height="9.9" class="st1"/><text x="3.45" y="326.75" class="st4">19</text></g><g id="shape59_134" transform="translate(112.697,-98.4514)"><title>text3820</title><desc>20</desc><rect x="0" y="319.403" width="16.55" height="9.9" class="st1"/><text x="3.45" y="326.75" class="st4">20</text></g><g id="shape60_137" transform="translate(136.615,-98.4514)"><title>text3824</title><desc>18</desc><rect x="0" y="319.403" width="16.55" height="9.9" class="st1"/><text x="3.45" y="326.75" class="st4">18</text></g><g id="shape61_140" transform="translate(143.171,-110.433)"><title>text3828</title><desc>0</desc><rect x="0" y="320.303" width="7.55" height="9" class="st1"/><text x="0" y="327.2" class="st2">0</text></g><g id="shape62_143" transform="translate(244.473,-111.195)"><title>text3828-7</title><desc>10</desc><rect x="0" y="320.303" width="15.05" height="9" class="st1"/><text x="0" y="327.2" class="st2">10</text></g><g id="shape63_146" transform="translate(4.34441,-137.001)"><title>text3883</title><desc>Level 1 Table</desc><rect x="0" y="300.322" width="37.7285" height="28.9804" class="st1"/><text x="5.97" y="312.41" class="st2">Level 1<tspan x="8.86" dy="9.5999616" class="st10">Table</tspan></text></g><g id="group64_150" transform="translate(96.8327,-49.2768)"><title>Sheet.64</title><g id="shape65_151"><title>path3186-8</title><path d="M0 270.84 L0 329.3 L0 270.84 Z" class="st5"/><path d="M0 270.84 L0 329.3" class="st6"/></g><g id="group66_154" transform="translate(327.803,324.803) rotate(90)"><title>Arrow1Mend-1</title><g id="shape67_155" transform="translate(5.25,655.605) rotate(180)"><title>path3821-5</title><path d="M3.75 327.8 L5.25 326.3 L0 327.8 L5.25 329.3 L3.75 327.8 Z" class="st7"/></g></g></g><g id="group68_157" transform="translate(43.4232,-160.891)"><title>Sheet.68</title><g id="shape69_158"><title>path3186-1</title><path d="M20.31 300.07 L0 329.3 L20.31 300.07 Z" class="st5"/><path d="M20.31 300.07 L0 329.3" class="st6"/></g><g id="group70_161" transform="translate(271.751,512.676) rotate(124.797)"><title>Arrow1Mend-1</title><g id="shape71_162" transform="translate(5.25,655.605) rotate(180)"><title>path3821-5</title><path d="M3.75 327.8 L5.25 326.3 L0 327.8 L5.25 329.3 L3.75 327.8 Z" class="st7"/></g></g></g><g id="group72_164" transform="translate(43.4232,-115.714)"><title>Sheet.72</title><g id="shape73_165"><title>path3186-1-1</title><path d="M0 300.07 L20.31 329.3 L0 300.07 Z" class="st5"/><path d="M0 300.07 L20.31 329.3" class="st6"/></g><g id="group74_168" transform="translate(286.93,138.538) rotate(55.2027)"><title>Arrow1Mend-1</title><g id="shape75_169" transform="translate(5.25,655.605) rotate(180)"><title>path3821-5</title><path d="M3.75 327.8 L5.25 326.3 L0 327.8 L5.25 329.3 L3.75 327.8 Z" class="st7"/></g></g></g><g id="group76_171" transform="translate(196.612,-51.2846)"><title>Sheet.76</title><g id="shape77_172"><title>path4100-7</title><path d="M127.51 145.94 L127.56 316.02 L0 316.02 L0 329.3 L127.51 145.94 Z" class="st5"/><path d="M127.51 145.94 L127.56 316.02 L0 316.02 L0 329.3" class="st6"/></g><g id="group78_175" transform="translate(327.803,324.803) rotate(90)"><title>Arrow1Mend-1</title><g id="shape79_176" transform="translate(5.25,655.605) rotate(180)"><title>path3821-5</title><path d="M3.75 327.8 L5.25 326.3 L0 327.8 L5.25 329.3 L3.75 327.8 Z" class="st7"/></g></g></g><g id="shape81_178" transform="translate(64.9429,-33.3319)"><title>rect3889</title><rect x="0" y="314.12" width="62.9173" height="15.1825" class="st3"/></g><g id="shape82_180" transform="translate(60.4572,-21.727)"><title>text3891</title><desc>31</desc><rect x="0" y="319.403" width="16.55" height="9.9" class="st1"/><text x="3.45" y="326.75" class="st4">31</text></g><g id="shape83_183" transform="translate(114.759,-21.727)"><title>text3895</title><desc>20</desc><rect x="0" y="319.403" width="16.55" height="9.9" class="st1"/><text x="3.45" y="326.75" class="st4">20</text></g><g id="shape84_186" transform="translate(133.175,-33.3319)"><title>rect3899</title><rect x="0" y="314.12" width="123.106" height="15.1825" class="st3"/></g><g id="shape85_188" transform="translate(249.29,-21.727)"><title>text4035-0</title><desc>0</desc><rect x="0" y="319.403" width="8.3" height="9.9" class="st1"/><text x="1.74" y="326.75" class="st4">0</text></g><g id="shape86_191" transform="translate(129.552,-21.727)"><title>text3895-6</title><desc>19</desc><rect x="0" y="319.403" width="16.55" height="9.9" class="st1"/><text x="3.45" y="326.75" class="st4">19</text></g><g id="shape87_194" transform="translate(120.123,-0.75)"><title>text3758-4</title><desc>Physical Address</desc><rect x="0" y="318.503" width="144.05" height="10.8" class="st1"/><text x="0" y="326.3" class="st2">Physical Address</text></g><g id="shape88_197" transform="translate(65.5334,-14.4998)"><title>path3772-3</title><path d="M0 323.99 C-0 323.99 0.86 327.36 2.55 328.24 C4.24 329.12 7.64 329.3 7.64 329.3 C7.64 329.3 183.36 329.3 183.36        329.3 C183.36 329.3 185.9 329.3 188.45 328.24 C191 327.18 191 323.99 191 323.99 L0 323.99 Z" class="st5"/><path d="M0 323.99 C-0 323.99 0.86 327.36 2.55 328.24 C4.24 329.12 7.64 329.3 7.64 329.3 C7.64 329.3 183.36 329.3 183.36        329.3 C183.36 329.3 185.9 329.3 188.45 328.24 C191 327.18 191 323.99 191 323.99" class="st6"/></g></g></svg>
